<svg xmlns="http://www.w3.org/2000/svg" width="503" height="503" viewBox="0 0 503 503">
  <g id="_3d_White_Pattern" data-name="3d White Pattern" transform="translate(0 0)">
    <g id="Pattern" transform="translate(0 0)">
      <g id="Group_64" data-name="Group 64">
        <g id="Group_9" data-name="Group 9" transform="translate(307.641)" style="isolation: isolate">
          <path id="Path_6" data-name="Path 6" d="M276.5,32.08c.9,0,25.5-14.237,26-15.039.4-.6-13.8-9.224-25.7-15.741-.5-.2-.8,6.617-.8,15.139C276,25.062,276.2,32.08,276.5,32.08Z" transform="translate(-276 -1.296)" fill="#e77345" opacity="0.57"/>
          <g id="Group_8" data-name="Group 8">
            <path id="Path_7" data-name="Path 7" d="M276.5,32.08c.9,0,25.5-14.237,26-15.039.4-.6-13.8-9.224-25.7-15.741-.5-.2-.8,6.617-.8,15.139C276,25.062,276.2,32.08,276.5,32.08Z" transform="translate(-276 -1.296)" fill="#e77345" opacity="0.57"/>
          </g>
        </g>
        <g id="Group_11" data-name="Group 11" transform="translate(479.5 4.3)" style="isolation: isolate">
          <path id="Path_8" data-name="Path 8" d="M429.5,24.048l9.4,9.424c5.2,5.214,9.8,9.324,10.3,9.023.4-.3.8-2.105.8-4.01s-.4-3.309-.8-3.008c-.5.3-3.5-2.206-6.7-5.414q-.585-.6-5.9-6.016,5.31-5.414,5.9-6.016c3.2-3.208,6.2-5.715,6.7-5.414.4.3.8-1.1.8-3.008s-.4-3.71-.8-4.01c-.5-.3-5.1,3.81-10.3,9.023Z" transform="translate(-429.5 -5.585)" fill="#e77345" opacity="0.57"/>
          <g id="Group_10" data-name="Group 10">
            <path id="Path_9" data-name="Path 9" d="M429.5,24.048l9.4,9.424c5.2,5.214,9.8,9.324,10.3,9.023.4-.3.8-2.105.8-4.01s-.4-3.309-.8-3.008c-.5.3-3.5-2.206-6.7-5.414q-.585-.6-5.9-6.016,5.31-5.414,5.9-6.016c3.2-3.208,6.2-5.715,6.7-5.414.4.3.8-1.1.8-3.008s-.4-3.71-.8-4.01c-.5-.3-5.1,3.81-10.3,9.023Z" transform="translate(-429.5 -5.585)" fill="#e77345" opacity="0.57"/>
          </g>
        </g>
        <g id="Group_13" data-name="Group 13" transform="translate(0 5.218)" style="isolation: isolate">
          <path id="Path_10" data-name="Path 10" d="M5.2,18.732q.525.526,5.2,5.314-4.68,4.782-5.2,5.314C.9,33.67,0,35.275,0,38.082v3.509l8.7-8.823,8.8-8.723L8.7,15.323,0,6.5v3.509Q.9,14.416,5.2,18.732Z" transform="translate(0 -6.5)" fill="#e77345" opacity="0.57"/>
          <g id="Group_12" data-name="Group 12">
            <path id="Path_11" data-name="Path 11" d="M5.2,18.732q.525.526,5.2,5.314-4.68,4.782-5.2,5.314C.9,33.67,0,35.275,0,38.082v3.509l8.7-8.823,8.8-8.723L8.7,15.323,0,6.5v3.509Q.9,14.416,5.2,18.732Z" transform="translate(0 -6.5)" fill="#e77345" opacity="0.57"/>
          </g>
        </g>
        <g id="Group_15" data-name="Group 15" transform="translate(127.2 40.81)" style="isolation: isolate">
          <path id="Path_12" data-name="Path 12" d="M114.4,73.081c.2,0,6.6-3.609,14.1-7.921q1.365-.8,13.7-7.921-6.66-3.79-7.4-4.211c-4-2.406-9.9-5.815-13.1-7.62C118.5,43.5,115.5,42,115,42s-.9,7.018-.9,15.54C114,66.062,114.2,73.081,114.4,73.081Z" transform="translate(-114.073 -42)" fill="#e77345" opacity="0.57"/>
          <g id="Group_14" data-name="Group 14">
            <path id="Path_13" data-name="Path 13" d="M114.4,73.081c.2,0,6.6-3.609,14.1-7.921q1.365-.8,13.7-7.921-6.66-3.79-7.4-4.211c-4-2.406-9.9-5.815-13.1-7.62C118.5,43.5,115.5,42,115,42s-.9,7.018-.9,15.54C114,66.062,114.2,73.081,114.4,73.081Z" transform="translate(-114.073 -42)" fill="#e77345" opacity="0.57"/>
          </g>
        </g>
        <g id="Group_17" data-name="Group 17" transform="translate(222.949 43.968)" style="isolation: isolate">
          <path id="Path_14" data-name="Path 14" d="M214.9,45.28l.62.13.64.18.67.221.71.271.76.321,1.99,1.013,1.73,1.223,1.46,1.394,1.21,1.544.95,1.664L226.32,55l.42,1.825.16,1.855-.1,1.865-.37,1.845-.63,1.795-.89,1.724-1.16,1.614L222.33,69l-1.68,1.333-1.95,1.133-.99.431-.98.341-.96.261-.96.18-.95.1h-.94l-.93-.07-.93-.17-.92-.241-.91-.341-.91-.431-.91-.511-.91-.6-.9-.692-.9-.792-.9-.872-.59-.592-.52-.551-.47-.521-.41-.481-.35-.471-.31-.451-.27-.441-.22-.451-.18-.461-.15-.471-.11-.5-.09-.531-.06-.571-.04-.612-.02-.682-.01-.732.03-1.123.09-1.083.14-1.033.21-.993.26-.942.32-.9.39-.862.44-.812.49-.762.56-.722.61-.682.68-.632.73-.592.79-.541.85-.5.91-.451.87-.391.8-.341.75-.291.7-.241.67-.19.63-.15.61-.1.6-.05h.58l.59.04Zm-4.75,5.855-1.29.752-1.2,1.033-1.06,1.3L205.35,56.8l-.31,2.537.5,2.4,1.16,2.126,1.68,1.745,2.05,1.253,2.29.642,2.39-.07,2.34-.912,2.15-1.865.81-1.053.64-1.083.46-1.123.29-1.143.11-1.153-.06-1.143-.25-1.133-.42-1.113-.6-1.063-.78-1.023-1.25-1.183-1.34-.912-1.4-.632-1.43-.351-1.44-.08-1.42.2Z" transform="translate(-200 -45.15)" fill="#e77345" opacity="0.57"/>
          <g id="Group_16" data-name="Group 16">
            <path id="Path_15" data-name="Path 15" d="M214.9,45.28l.62.13.64.18.67.221.71.271.76.321,1.99,1.013,1.73,1.223,1.46,1.394,1.21,1.544.95,1.664L226.32,55l.42,1.825.16,1.855-.1,1.865-.37,1.845-.63,1.795-.89,1.724-1.16,1.614L222.33,69l-1.68,1.333-1.95,1.133-.99.431-.98.341-.96.261-.96.18-.95.1h-.94l-.93-.07-.93-.17-.92-.241-.91-.341-.91-.431-.91-.511-.91-.6-.9-.692-.9-.792-.9-.872-.59-.592-.52-.551-.47-.521-.41-.481-.35-.471-.31-.451-.27-.441-.22-.451-.18-.461-.15-.471-.11-.5-.09-.531-.06-.571-.04-.612-.02-.682-.01-.732.03-1.123.09-1.083.14-1.033.21-.993.26-.942.32-.9.39-.862.44-.812.49-.762.56-.722.61-.682.68-.632.73-.592.79-.541.85-.5.91-.451.87-.391.8-.341.75-.291.7-.241.67-.19.63-.15.61-.1.6-.05h.58l.59.04Zm-4.75,5.855-1.29.752-1.2,1.033-1.06,1.3L205.35,56.8l-.31,2.537.5,2.4,1.16,2.126,1.68,1.745,2.05,1.253,2.29.642,2.39-.07,2.34-.912,2.15-1.865.81-1.053.64-1.083.46-1.123.29-1.143.11-1.153-.06-1.143-.25-1.133-.42-1.113-.6-1.063-.78-1.023-1.25-1.183-1.34-.912-1.4-.632-1.43-.351-1.44-.08-1.42.2Z" transform="translate(-200 -45.15)" fill="#e77345" opacity="0.57"/>
          </g>
        </g>
        <g id="Group_19" data-name="Group 19" transform="translate(407.84 57.854)" style="isolation: isolate">
          <path id="Path_16" data-name="Path 16" d="M363,86.07V59h27V86.07Zm5-5.013h17V64.013H368Z" transform="translate(-363 -59)" fill="#e77345" opacity="0.57"/>
          <g id="Group_18" data-name="Group 18">
            <path id="Path_17" data-name="Path 17" d="M363,86.07V59h27V86.07Zm5-5.013h17V64.013H368Z" transform="translate(-363 -59)" fill="#e77345" opacity="0.57"/>
          </g>
        </g>
        <g id="Group_21" data-name="Group 21" transform="translate(46.5 85.234)" style="isolation: isolate">
          <path id="Path_18" data-name="Path 18" d="M52.7,83.617l3.7,2.807-4.9,4.311-4.9,4.211,2.5,1.9c1.3,1.1,3.5,2.908,4.9,4.01.17.13,1,.8,2.5,2.005-1.5,1.2-2.33,1.875-2.5,2.005-1.4,1.1-3.6,2.908-5,4.01-.17.13-1,.8-2.5,2.005,1.5,1.2,2.33,1.875,2.5,2.005,6.5,5.113,7.5,6.216,6.4,6.918-.6.5-2.3,1.8-3.9,3.108-2.7,2.105-2.7,2.306-1,4.211s1.8,1.8,7.4-2.707a49.609,49.609,0,0,0,5.9-5.314c.1-.4-1.8-2.206-4.2-4.111-2.5-1.9-4.6-3.71-4.6-4.01s2-2.005,4.5-3.91,4.5-3.609,4.5-3.91-2.1-2.406-4.6-4.612l-4.7-4.111,4.6-3.409c2.6-1.9,4.7-3.81,4.7-4.211C64,86.023,53.2,77,52.1,77c-.3,0-1.2.9-1.8,1.9C49.2,80.609,49.6,81.211,52.7,83.617Z" transform="translate(-46.5 -77)" fill="#e77345" opacity="0.57"/>
          <g id="Group_20" data-name="Group 20">
            <path id="Path_19" data-name="Path 19" d="M52.7,83.617l3.7,2.807-4.9,4.311-4.9,4.211,2.5,1.9c1.3,1.1,3.5,2.908,4.9,4.01.17.13,1,.8,2.5,2.005-1.5,1.2-2.33,1.875-2.5,2.005-1.4,1.1-3.6,2.908-5,4.01-.17.13-1,.8-2.5,2.005,1.5,1.2,2.33,1.875,2.5,2.005,6.5,5.113,7.5,6.216,6.4,6.918-.6.5-2.3,1.8-3.9,3.108-2.7,2.105-2.7,2.306-1,4.211s1.8,1.8,7.4-2.707a49.609,49.609,0,0,0,5.9-5.314c.1-.4-1.8-2.206-4.2-4.111-2.5-1.9-4.6-3.71-4.6-4.01s2-2.005,4.5-3.91,4.5-3.609,4.5-3.91-2.1-2.406-4.6-4.612l-4.7-4.111,4.6-3.409c2.6-1.9,4.7-3.81,4.7-4.211C64,86.023,53.2,77,52.1,77c-.3,0-1.2.9-1.8,1.9C49.2,80.609,49.6,81.211,52.7,83.617Z" transform="translate(-46.5 -77)" fill="#e77345" opacity="0.57"/>
          </g>
        </g>
        <g id="Group_23" data-name="Group 23" transform="translate(280.074 88.419)" style="isolation: isolate">
          <path id="Path_20" data-name="Path 20" d="M251,107.571c0,.3,7,.5,15.5.5s15.5-.2,15.5-.5c0-.5-14.8-26.669-15.3-27.271-.1-.1-3.7,5.915-7.9,13.234C254.5,100.954,251,107.17,251,107.571Z" transform="translate(-251 -80.299)" fill="#e77345" opacity="0.57"/>
          <g id="Group_22" data-name="Group 22">
            <path id="Path_21" data-name="Path 21" d="M251,107.571c0,.3,7,.5,15.5.5s15.5-.2,15.5-.5c0-.5-14.8-26.669-15.3-27.271-.1-.1-3.7,5.915-7.9,13.234C254.5,100.954,251,107.17,251,107.571Z" transform="translate(-251 -80.299)" fill="#e77345" opacity="0.57"/>
          </g>
        </g>
        <g id="Group_25" data-name="Group 25" transform="translate(485 103.859)" style="isolation: isolate">
          <path id="Path_22" data-name="Path 22" d="M435.9,99.013c.5,0,2.3,1.2,4,2.607,2.3,1.9,3.1,3.409,3.1,5.915,0,3.81-3.3,8.522-6.1,8.522-1.4,0-1.9.7-1.9,2.908,0,2.908.1,2.908,3.3,2.005a17.4,17.4,0,0,0,6.5-4.411c2.6-2.908,3.2-4.311,3.2-8.121,0-5.815-2.8-10.628-7.4-12.833s-5.6-2.005-5.6.9C435,97.91,435.4,99.013,435.9,99.013Z" transform="translate(-435 -94.115)" fill="#e77345" opacity="0.57"/>
          <g id="Group_24" data-name="Group 24">
            <path id="Path_23" data-name="Path 23" d="M435.9,99.013c.5,0,2.3,1.2,4,2.607,2.3,1.9,3.1,3.409,3.1,5.915,0,3.81-3.3,8.522-6.1,8.522-1.4,0-1.9.7-1.9,2.908,0,2.908.1,2.908,3.3,2.005a17.4,17.4,0,0,0,6.5-4.411c2.6-2.908,3.2-4.311,3.2-8.121,0-5.815-2.8-10.628-7.4-12.833s-5.6-2.005-5.6.9C435,97.91,435.4,99.013,435.9,99.013Z" transform="translate(-435 -94.115)" fill="#e77345" opacity="0.57"/>
          </g>
        </g>
        <g id="Group_27" data-name="Group 27" transform="translate(139.735 126.547)" style="isolation: isolate">
          <path id="Path_24" data-name="Path 24" d="M144.2,114.19l.18.13.22.18.28.231.32.281.37.331.41.371.44.411.49.451.52.491.55.531.58.551.6.592.64.612.65.652.68.662.69.692.72.7.72.722.74.742,9.5,9.525L144,152.6l-19-19.25,9.3-9.525.71-.752.7-.732.69-.722.67-.7.65-.672.64-.652.61-.632.59-.592.56-.571.54-.541.5-.5.47-.461.44-.421.39-.391.36-.341.32-.3.27-.251.22-.2.18-.15.12-.1.07-.04.07.02Zm-11.7,18.859,12,12.031,11.6-11.63-6-6.116-6-6.016-5.8,5.915Z" transform="translate(-125 -114.1)" fill="#e77345" opacity="0.57"/>
          <g id="Group_26" data-name="Group 26">
            <path id="Path_25" data-name="Path 25" d="M144.2,114.19l.18.13.22.18.28.231.32.281.37.331.41.371.44.411.49.451.52.491.55.531.58.551.6.592.64.612.65.652.68.662.69.692.72.7.72.722.74.742,9.5,9.525L144,152.6l-19-19.25,9.3-9.525.71-.752.7-.732.69-.722.67-.7.65-.672.64-.652.61-.632.59-.592.56-.571.54-.541.5-.5.47-.461.44-.421.39-.391.36-.341.32-.3.27-.251.22-.2.18-.15.12-.1.07-.04.07.02Zm-11.7,18.859,12,12.031,11.6-11.63-6-6.116-6-6.016-5.8,5.915Z" transform="translate(-125 -114.1)" fill="#e77345" opacity="0.57"/>
          </g>
        </g>
        <g id="Group_29" data-name="Group 29" transform="translate(377.21 158.596)" style="isolation: isolate">
          <path id="Path_26" data-name="Path 26" d="M353.87,143.18l.98.13.95.17.91.221.86.281.8.331.73.391.31.211.32.241.33.281.34.311.35.331.35.371.34.381.35.4.34.431.33.431.32.441.3.451.29.461.26.461.25.461.22.451.47,1.023.38,1,.3.993.22.962.13.962.05.942-.03.932-.12.922-.2.922-.29.912-.37.912-.46.9-.54.912-.63.9-.71.912-.8.922-.57.622-.52.541-.48.481-.45.411-.43.361-.43.3-.44.251-.45.2-.49.17-.53.12-.58.1-.65.06-.72.05-.82.02-.91.02h-2.06l-.91-.02-.82-.02-.72-.05-.65-.06-.58-.1-.53-.12-.48-.17-.46-.2-.44-.251-.43-.3-.43-.361-.45-.411-.48-.481-.52-.541-.57-.622-.8-.922-.71-.912-.63-.9-.54-.912-.46-.9-.37-.912-.29-.912-.2-.922-.12-.922-.03-.932.05-.942.13-.962.22-.962.3-.993.38-1,.47-1.023.22-.451.24-.461.26-.461.28-.451.3-.451.31-.451.31-.431.33-.411.33-.4.33-.381.33-.351.33-.331.32-.3.32-.261.3-.231.29-.191.71-.391.79-.341.85-.281.9-.241.94-.191.97-.14,1-.08,1-.04,1.01.02Zm-3.33,4.923-.66.11-.63.16-.59.211-.56.271-.55.331-.52.381-.52.441-.51.511-1.72,2.456-.74,2.527.11,2.476.83,2.286,1.43,1.955,1.9,1.514,2.25.932,2.46.221,2.56-.632,2.52-1.6,1-.993.79-1.1.57-1.193.36-1.253.14-1.3-.07-1.313-.28-1.3-.49-1.283-.71-1.233-.91-1.153-.51-.511-.52-.441-.52-.381-.55-.331-.56-.271-.59-.211-.63-.16-.66-.11-.71-.07-.75-.02-.75.02Z" transform="translate(-338.35 -143.1)" fill="#e77345" opacity="0.57"/>
          <g id="Group_28" data-name="Group 28">
            <path id="Path_27" data-name="Path 27" d="M353.87,143.18l.98.13.95.17.91.221.86.281.8.331.73.391.31.211.32.241.33.281.34.311.35.331.35.371.34.381.35.4.34.431.33.431.32.441.3.451.29.461.26.461.25.461.22.451.47,1.023.38,1,.3.993.22.962.13.962.05.942-.03.932-.12.922-.2.922-.29.912-.37.912-.46.9-.54.912-.63.9-.71.912-.8.922-.57.622-.52.541-.48.481-.45.411-.43.361-.43.3-.44.251-.45.2-.49.17-.53.12-.58.1-.65.06-.72.05-.82.02-.91.02h-2.06l-.91-.02-.82-.02-.72-.05-.65-.06-.58-.1-.53-.12-.48-.17-.46-.2-.44-.251-.43-.3-.43-.361-.45-.411-.48-.481-.52-.541-.57-.622-.8-.922-.71-.912-.63-.9-.54-.912-.46-.9-.37-.912-.29-.912-.2-.922-.12-.922-.03-.932.05-.942.13-.962.22-.962.3-.993.38-1,.47-1.023.22-.451.24-.461.26-.461.28-.451.3-.451.31-.451.31-.431.33-.411.33-.4.33-.381.33-.351.33-.331.32-.3.32-.261.3-.231.29-.191.71-.391.79-.341.85-.281.9-.241.94-.191.97-.14,1-.08,1-.04,1.01.02Zm-3.33,4.923-.66.11-.63.16-.59.211-.56.271-.55.331-.52.381-.52.441-.51.511-1.72,2.456-.74,2.527.11,2.476.83,2.286,1.43,1.955,1.9,1.514,2.25.932,2.46.221,2.56-.632,2.52-1.6,1-.993.79-1.1.57-1.193.36-1.253.14-1.3-.07-1.313-.28-1.3-.49-1.283-.71-1.233-.91-1.153-.51-.511-.52-.441-.52-.381-.55-.331-.56-.271-.59-.211-.63-.16-.66-.11-.71-.07-.75-.02-.75.02Z" transform="translate(-338.35 -143.1)" fill="#e77345" opacity="0.57"/>
          </g>
        </g>
        <g id="Group_31" data-name="Group 31" transform="translate(459 181.899)" style="isolation: isolate">
          <path id="Path_28" data-name="Path 28" d="M428,183.551l-9.5-.3-9.5-.3v6.116h24V164h-2.5c-2.5,0-2.5,0-2.5,9.725Z" transform="translate(-409 -164)" fill="#e77345" opacity="0.57"/>
          <g id="Group_30" data-name="Group 30">
            <path id="Path_29" data-name="Path 29" d="M428,183.551l-9.5-.3-9.5-.3v6.116h24V164h-2.5c-2.5,0-2.5,0-2.5,9.725Z" transform="translate(-409 -164)" fill="#e77345" opacity="0.57"/>
          </g>
        </g>
        <g id="Group_33" data-name="Group 33" transform="translate(22.9 204.351)" style="isolation: isolate">
          <path id="Path_30" data-name="Path 30" d="M36.8,210.87l-13.3-.3-.3-13.335L22.9,184H50v27.17Zm-8.6-13.635.3,8.322,8.3.3,8.2.3V189.013H27.9Z" transform="translate(-22.9 -184)" fill="#e77345" opacity="0.57"/>
          <g id="Group_32" data-name="Group 32">
            <path id="Path_31" data-name="Path 31" d="M36.8,210.87l-13.3-.3-.3-13.335L22.9,184H50v27.17Zm-8.6-13.635.3,8.322,8.3.3,8.2.3V189.013H27.9Z" transform="translate(-22.9 -184)" fill="#e77345" opacity="0.57"/>
          </g>
        </g>
        <g id="Group_35" data-name="Group 35" transform="translate(112.068 222.783)" style="isolation: isolate">
          <path id="Path_32" data-name="Path 32" d="M100.1,214.636c1.7,2.105,3,1.7,6.1-1.9.19-.211,1.12-1.283,2.8-3.208l4,4.512,4,4.512q3.42-3.88,3.8-4.311c2-2.306,4-4.211,4.3-4.211.4,0,2.2,2.005,4.2,4.512q.345.466,3.5,4.612l4.3-5.113,4.2-5.013c1.5,2.105,2.33,3.278,2.5,3.509,2.7,3.71,4.3,4.311,6.1,2.105.9-1,0-2.707-3.8-7.519l-5-6.216-4,5.013-3.9,5.113-4-5.013-4-5.013-4.1,4.812-4.1,4.712-4.2-4.712-4.3-4.712-4.8,6.116Q99.2,213.638,100.1,214.636Z" transform="translate(-99.95 -200.9)" fill="#e77345" opacity="0.57"/>
          <g id="Group_34" data-name="Group 34">
            <path id="Path_33" data-name="Path 33" d="M100.1,214.636c1.7,2.105,3,1.7,6.1-1.9.19-.211,1.12-1.283,2.8-3.208l4,4.512,4,4.512q3.42-3.88,3.8-4.311c2-2.306,4-4.211,4.3-4.211.4,0,2.2,2.005,4.2,4.512q.345.466,3.5,4.612l4.3-5.113,4.2-5.013c1.5,2.105,2.33,3.278,2.5,3.509,2.7,3.71,4.3,4.311,6.1,2.105.9-1,0-2.707-3.8-7.519l-5-6.216-4,5.013-3.9,5.113-4-5.013-4-5.013-4.1,4.812-4.1,4.712-4.2-4.712-4.3-4.712-4.8,6.116Q99.2,213.638,100.1,214.636Z" transform="translate(-99.95 -200.9)" fill="#e77345" opacity="0.57"/>
          </g>
        </g>
        <g id="Group_37" data-name="Group 37" transform="translate(370.069 233.59)" style="isolation: isolate">
          <path id="Path_34" data-name="Path 34" d="M330.6,224.737c1.7,1.3,2.2,1.1,5-2.206q.315-.361,3.2-3.609l3.7,4.612c2.1,2.507,4.1,4.512,4.5,4.512.3,0,2.2-2.105,4-4.712q.345-.466,3.4-4.612l4.3,4.913,4.3,4.913c1.26-1.5,1.96-2.336,2.1-2.507,1.2-1.4,3-3.609,4.1-5.013,1.2-1.5,2.2-2.005,2.6-1.4s1.7,2.306,2.9,3.81c2,2.507,2.4,2.607,4.3,1.3,2.2-1.5,2.5-1-7.8-13.736-.2-.3-.9.2-1.5,1.1-.7.8-2.5,3.108-4,5.013l-2.8,3.409c-1.2-1.5-1.87-2.336-2-2.507-1.2-1.4-3-3.609-4.1-5.013-.13-.16-.76-.963-1.9-2.406q-2.43,3.068-2.7,3.409c-1.5,1.9-3.3,4.111-3.9,4.913-1.1,1.4-1.8,1-5.6-3.309l-4.3-4.913-4.9,6.316Q328.7,223.333,330.6,224.737Z" transform="translate(-330.06 -210.6)" fill="#e77345" opacity="0.57"/>
          <g id="Group_36" data-name="Group 36">
            <path id="Path_35" data-name="Path 35" d="M330.6,224.737c1.7,1.3,2.2,1.1,5-2.206q.315-.361,3.2-3.609l3.7,4.612c2.1,2.507,4.1,4.512,4.5,4.512.3,0,2.2-2.105,4-4.712q.345-.466,3.4-4.612l4.3,4.913,4.3,4.913c1.26-1.5,1.96-2.336,2.1-2.507,1.2-1.4,3-3.609,4.1-5.013,1.2-1.5,2.2-2.005,2.6-1.4s1.7,2.306,2.9,3.81c2,2.507,2.4,2.607,4.3,1.3,2.2-1.5,2.5-1-7.8-13.736-.2-.3-.9.2-1.5,1.1-.7.8-2.5,3.108-4,5.013l-2.8,3.409c-1.2-1.5-1.87-2.336-2-2.507-1.2-1.4-3-3.609-4.1-5.013-.13-.16-.76-.963-1.9-2.406q-2.43,3.068-2.7,3.409c-1.5,1.9-3.3,4.111-3.9,4.913-1.1,1.4-1.8,1-5.6-3.309l-4.3-4.913-4.9,6.316Q328.7,223.333,330.6,224.737Z" transform="translate(-330.06 -210.6)" fill="#e77345" opacity="0.57"/>
          </g>
        </g>
        <g id="Group_39" data-name="Group 39" transform="translate(258.757 244.131)" style="isolation: isolate">
          <path id="Path_36" data-name="Path 36" d="M250.5,257.1l-19-19.049L250.5,219l19,19.049Zm-.43-29.907-.33.2-.38.281-.45.351-.49.4-.55.461-.58.511-.61.561-.65.6-.66.632-.68.662-.69.682-5.4,5.514,5.9,6.016,6,6.016,12-12.031-5.5-5.514-.69-.682-.68-.662-.66-.632-.65-.6-.61-.561-.58-.511-.55-.461-.49-.4-.45-.351-.38-.281-.33-.2-.25-.13-.18-.04-.18.04Z" transform="translate(-231.5 -219)" fill="#e77345" opacity="0.57"/>
          <g id="Group_38" data-name="Group 38">
            <path id="Path_37" data-name="Path 37" d="M250.5,257.1l-19-19.049L250.5,219l19,19.049Zm-.43-29.907-.33.2-.38.281-.45.351-.49.4-.55.461-.58.511-.61.561-.65.6-.66.632-.68.662-.69.682-5.4,5.514,5.9,6.016,6,6.016,12-12.031-5.5-5.514-.69-.682-.68-.662-.66-.632-.65-.6-.61-.561-.58-.511-.55-.461-.49-.4-.45-.351-.38-.281-.33-.2-.25-.13-.18-.04-.18.04Z" transform="translate(-231.5 -219)" fill="#e77345" opacity="0.57"/>
          </g>
        </g>
        <g id="Group_41" data-name="Group 41" transform="translate(168.438 269.233)" style="isolation: isolate">
          <path id="Path_38" data-name="Path 38" d="M166.1,242.14l.91.14.9.19.89.251.87.311.84.361.81.431.78.481.73.511.68.531.62.531.57.551.52.561.47.582.43.612.37.642.33.662.29.7.24.742.21.782.16.822.12.872.09.922.05.973.02,1.033-.01.682-.01.632-.04.582-.05.541-.07.511-.09.481-.11.461-.14.431-.17.431-.2.411-.23.421-.26.411-.3.431-.34.441-.38.451-.43.491-.47.511-.48.521-.46.471-.43.431-.43.381-.41.351-.41.3-.41.271-.42.241-.43.2-.44.18-.47.16-.49.14-.52.11-.56.11-.6.09-.64.08-.7.07-1.08.08-1.03.02-1.01-.03-.96-.08-.93-.14-.89-.19-.86-.241-.82-.3-.78-.351-.75-.411-.72-.461-.68-.521-.65-.561-.61-.632-.58-.672-.54-.742-.51-.782-.61-1.1-.49-1.143-.37-1.183-.26-1.2-.14-1.213-.03-1.233.08-1.223.19-1.223.29-1.2.39-1.173.5-1.143.59-1.1.69-1.053.78-1,.87-.922.97-.852,1.05-.772.74-.451.79-.391.81-.331.85-.271.87-.221.89-.15.9-.1.92-.04.91.02Zm-3.66,5.394-1.2.582-1.18.8-1.16,1-.88.973-.71.932-.54.922-.38.922-.21.922-.06.962.11.993.26,1.053.43,1.133.58,1.213.49.892.5.772.54.642.6.531.66.421.74.331.83.241.95.16,1.08.09,1.21.03,1.99-.271,1.76-.752,1.49-1.153,1.18-1.474.86-1.7.48-1.855.09-1.935L172.61,253l-.81-1.825-1.3-1.654-1.05-.942-1.1-.722-1.14-.5-1.17-.281-1.19-.06-1.2.15Z" transform="translate(-151.1 -242.05)" fill="#e77345" opacity="0.57"/>
          <g id="Group_40" data-name="Group 40">
            <path id="Path_39" data-name="Path 39" d="M166.1,242.14l.91.14.9.19.89.251.87.311.84.361.81.431.78.481.73.511.68.531.62.531.57.551.52.561.47.582.43.612.37.642.33.662.29.7.24.742.21.782.16.822.12.872.09.922.05.973.02,1.033-.01.682-.01.632-.04.582-.05.541-.07.511-.09.481-.11.461-.14.431-.17.431-.2.411-.23.421-.26.411-.3.431-.34.441-.38.451-.43.491-.47.511-.48.521-.46.471-.43.431-.43.381-.41.351-.41.3-.41.271-.42.241-.43.2-.44.18-.47.16-.49.14-.52.11-.56.11-.6.09-.64.08-.7.07-1.08.08-1.03.02-1.01-.03-.96-.08-.93-.14-.89-.19-.86-.241-.82-.3-.78-.351-.75-.411-.72-.461-.68-.521-.65-.561-.61-.632-.58-.672-.54-.742-.51-.782-.61-1.1-.49-1.143-.37-1.183-.26-1.2-.14-1.213-.03-1.233.08-1.223.19-1.223.29-1.2.39-1.173.5-1.143.59-1.1.69-1.053.78-1,.87-.922.97-.852,1.05-.772.74-.451.79-.391.81-.331.85-.271.87-.221.89-.15.9-.1.92-.04.91.02Zm-3.66,5.394-1.2.582-1.18.8-1.16,1-.88.973-.71.932-.54.922-.38.922-.21.922-.06.962.11.993.26,1.053.43,1.133.58,1.213.49.892.5.772.54.642.6.531.66.421.74.331.83.241.95.16,1.08.09,1.21.03,1.99-.271,1.76-.752,1.49-1.153,1.18-1.474.86-1.7.48-1.855.09-1.935L172.61,253l-.81-1.825-1.3-1.654-1.05-.942-1.1-.722-1.14-.5-1.17-.281-1.19-.06-1.2.15Z" transform="translate(-151.1 -242.05)" fill="#e77345" opacity="0.57"/>
          </g>
        </g>
        <g id="Group_43" data-name="Group 43" transform="translate(462 269.257)" style="isolation: isolate">
          <path id="Path_40" data-name="Path 40" d="M412,269.471c0,.3,7,.6,15.5.6s15.5-.2,15.5-.5-3.5-6.617-7.9-14.036q-.795-1.353-7.9-13.535l-7.6,13.435Q411.995,269.165,412,269.471Z" transform="translate(-412 -242)" fill="#e77345" opacity="0.57"/>
          <g id="Group_42" data-name="Group 42">
            <path id="Path_41" data-name="Path 41" d="M412,269.471c0,.3,7,.6,15.5.6s15.5-.2,15.5-.5-3.5-6.617-7.9-14.036q-.795-1.353-7.9-13.535l-7.6,13.435Q411.995,269.165,412,269.471Z" transform="translate(-412 -242)" fill="#e77345" opacity="0.57"/>
          </g>
        </g>
        <g id="Group_45" data-name="Group 45" transform="translate(52 292.534)" style="isolation: isolate">
          <path id="Path_42" data-name="Path 42" d="M72,283.052H52v5.013H77V263H72v20.052Z" transform="translate(-52 -263)" fill="#e77345" opacity="0.57"/>
          <g id="Group_44" data-name="Group 44">
            <path id="Path_43" data-name="Path 43" d="M72,283.052H52v5.013H77V263H72v20.052Z" transform="translate(-52 -263)" fill="#e77345" opacity="0.57"/>
          </g>
        </g>
        <g id="Group_47" data-name="Group 47" transform="translate(320.916 308.903)" style="isolation: isolate">
          <path id="Path_44" data-name="Path 44" d="M288.3,296.749c1.6,1.6,2.1,1.4,8.6-5.113q.705-.692,7-6.918l6.5,6.818c6.5,6.717,6.7,6.818,8.7,5.013,2-1.9,1.9-1.9-6.3-10.227C308.3,281.71,304.3,278,304,278s-4.3,3.81-9,8.522C287,294.543,286.6,295.144,288.3,296.749Z" transform="translate(-287.485 -278)" fill="#e77345" opacity="0.57"/>
          <g id="Group_46" data-name="Group 46">
            <path id="Path_45" data-name="Path 45" d="M288.3,296.749c1.6,1.6,2.1,1.4,8.6-5.113q.705-.692,7-6.918l6.5,6.818c6.5,6.717,6.7,6.818,8.7,5.013,2-1.9,1.9-1.9-6.3-10.227C308.3,281.71,304.3,278,304,278s-4.3,3.81-9,8.522C287,294.543,286.6,295.144,288.3,296.749Z" transform="translate(-287.485 -278)" fill="#e77345" opacity="0.57"/>
          </g>
        </g>
        <g id="Group_49" data-name="Group 49" transform="translate(208.537 355.55)" style="isolation: isolate">
          <path id="Path_46" data-name="Path 46" d="M186.1,333.636c1.8,2.105,3.2,1.6,6-2.206q.27-.346,2.7-3.509l4,5.113,4,5.013,4.1-4.812,4.1-4.712,4,4.512,4,4.512,4-4.512,4-4.512q2.61,2.978,2.9,3.309c2.5,2.908,3.2,3.208,5,2.206,2.4-1.3,2.3-1.5-3.3-8.522-2.2-2.807-4.1-5.214-4.3-5.414-.2-.3-1.1.5-1.9,1.8-.9,1.2-2.7,3.409-4,4.913l-2.4,2.707-4.4-5.013c-2.5-2.807-4.6-4.612-4.6-4.01,0,.5-1.6,2.807-3.5,5.013q-.345.406-3.5,4.01l-4.3-4.812-4.2-4.812-4.7,6.216Q185.3,332.628,186.1,333.636Z" transform="translate(-185.98 -319.9)" fill="#e77345" opacity="0.57"/>
          <g id="Group_48" data-name="Group 48">
            <path id="Path_47" data-name="Path 47" d="M186.1,333.636c1.8,2.105,3.2,1.6,6-2.206q.27-.346,2.7-3.509l4,5.113,4,5.013,4.1-4.812,4.1-4.712,4,4.512,4,4.512,4-4.512,4-4.512q2.61,2.978,2.9,3.309c2.5,2.908,3.2,3.208,5,2.206,2.4-1.3,2.3-1.5-3.3-8.522-2.2-2.807-4.1-5.214-4.3-5.414-.2-.3-1.1.5-1.9,1.8-.9,1.2-2.7,3.409-4,4.913l-2.4,2.707-4.4-5.013c-2.5-2.807-4.6-4.612-4.6-4.01,0,.5-1.6,2.807-3.5,5.013q-.345.406-3.5,4.01l-4.3-4.812-4.2-4.812-4.7,6.216Q185.3,332.628,186.1,333.636Z" transform="translate(-185.98 -319.9)" fill="#e77345" opacity="0.57"/>
          </g>
        </g>
        <g id="Group_51" data-name="Group 51" transform="translate(370.104 384.403)" style="isolation: isolate">
          <path id="Path_48" data-name="Path 48" d="M332,377.084c1.98-1.143,3.08-1.775,3.3-1.9,1.7-1,7.8-4.612,13.5-7.82,5.6-3.309,10.2-6.216,10.2-6.517,0-.4-4.6-3.309-10.2-6.517-5.7-3.309-11.8-6.818-13.5-7.82-.22-.13-1.32-.762-3.3-1.9v32.484Z" transform="translate(-332 -344.6)" fill="#e77345" opacity="0.57"/>
          <g id="Group_50" data-name="Group 50">
            <path id="Path_49" data-name="Path 49" d="M332,377.084c1.98-1.143,3.08-1.775,3.3-1.9,1.7-1,7.8-4.612,13.5-7.82,5.6-3.309,10.2-6.216,10.2-6.517,0-.4-4.6-3.309-10.2-6.517-5.7-3.309-11.8-6.818-13.5-7.82-.22-.13-1.32-.762-3.3-1.9v32.484Z" transform="translate(-332 -344.6)" fill="#e77345" opacity="0.57"/>
          </g>
        </g>
        <g id="Group_53" data-name="Group 53" transform="translate(51.21 385.603)" style="isolation: isolate">
          <path id="Path_50" data-name="Path 50" d="M68.14,346.561l1.75.612,1.61.842,1.46,1.043,1.31,1.213,1.13,1.374.96,1.494.76,1.6.56,1.694.34,1.734.12,1.775-.13,1.785-.37,1.765L77,365.22l-.91,1.664-1.19,1.574-.65.7-.67.642-.68.6-.71.541-.73.481-.75.441-.77.381-.78.331-.8.271-.81.221-.83.16-.84.11-.86.06h-.86l-.88-.05-.88-.11-.9-.17-1.19-.331-1.13-.411-1.06-.491-1-.571-.93-.652-.86-.722-.78-.782-.71-.852-.63-.912-.55-.973-.47-1.013-.38-1.073-.29-1.113-.2-1.163-.1-1.193-.01-1.223.09-1.263.12-.822.18-.822.25-.822.3-.822.35-.812.4-.792.44-.782.49-.752.52-.722.56-.692.59-.652.62-.612.64-.561.67-.511.68-.451.69-.381.7-.321.21-.09.22-.08.25-.08.26-.08.27-.08.29-.07.29-.07.31-.06.3-.06.32-.05.31-.04.31-.04.31-.04.3-.02.29-.02.29-.02h.27l1.98.09Zm-5.5,4.843-.92.381-.92.541-.93.712-.97.882-1.47,1.8-.93,1.895-.43,1.915.05,1.875.49,1.755.92,1.594,1.32,1.343,1.68,1.043,2.03.672,2.34.241.88-.02.78-.06.7-.1.63-.16.57-.211.53-.271.49-.341.48-.4.47-.481.47-.561.95-1.414.68-1.474.41-1.484.16-1.484-.09-1.444-.34-1.374-.58-1.273-.83-1.163-1.06-1-1.3-.822-1.21-.581-1.13-.431-1.05-.261-.99-.11-.96.05Z" transform="translate(-51.21 -346.1)" fill="#e77345" opacity="0.57"/>
          <g id="Group_52" data-name="Group 52">
            <path id="Path_51" data-name="Path 51" d="M68.14,346.561l1.75.612,1.61.842,1.46,1.043,1.31,1.213,1.13,1.374.96,1.494.76,1.6.56,1.694.34,1.734.12,1.775-.13,1.785-.37,1.765L77,365.22l-.91,1.664-1.19,1.574-.65.7-.67.642-.68.6-.71.541-.73.481-.75.441-.77.381-.78.331-.8.271-.81.221-.83.16-.84.11-.86.06h-.86l-.88-.05-.88-.11-.9-.17-1.19-.331-1.13-.411-1.06-.491-1-.571-.93-.652-.86-.722-.78-.782-.71-.852-.63-.912-.55-.973-.47-1.013-.38-1.073-.29-1.113-.2-1.163-.1-1.193-.01-1.223.09-1.263.12-.822.18-.822.25-.822.3-.822.35-.812.4-.792.44-.782.49-.752.52-.722.56-.692.59-.652.62-.612.64-.561.67-.511.68-.451.69-.381.7-.321.21-.09.22-.08.25-.08.26-.08.27-.08.29-.07.29-.07.31-.06.3-.06.32-.05.31-.04.31-.04.31-.04.3-.02.29-.02.29-.02h.27l1.98.09Zm-5.5,4.843-.92.381-.92.541-.93.712-.97.882-1.47,1.8-.93,1.895-.43,1.915.05,1.875.49,1.755.92,1.594,1.32,1.343,1.68,1.043,2.03.672,2.34.241.88-.02.78-.06.7-.1.63-.16.57-.211.53-.271.49-.341.48-.4.47-.481.47-.561.95-1.414.68-1.474.41-1.484.16-1.484-.09-1.444-.34-1.374-.58-1.273-.83-1.163-1.06-1-1.3-.822-1.21-.581-1.13-.431-1.05-.261-.99-.11-.96.05Z" transform="translate(-51.21 -346.1)" fill="#e77345" opacity="0.57"/>
          </g>
        </g>
        <g id="Group_55" data-name="Group 55" transform="translate(134.45 422.694)" style="isolation: isolate">
          <path id="Path_52" data-name="Path 52" d="M120.7,396.35c1.6,1.6,2.1,1.4,8.5-5.013q.675-.677,6.8-6.717,6.21,6.136,6.9,6.818c6,5.915,7.2,6.818,8.5,5.615a4.056,4.056,0,0,0,1.6-2.406c0-.6-3.7-4.812-8.3-9.424L136.5,377l-8.8,8.823Q119.1,394.651,120.7,396.35Z" transform="translate(-120.448 -377)" fill="#e77345" opacity="0.57"/>
          <g id="Group_54" data-name="Group 54">
            <path id="Path_53" data-name="Path 53" d="M120.7,396.35c1.6,1.6,2.1,1.4,8.5-5.013q.675-.677,6.8-6.717,6.21,6.136,6.9,6.818c6,5.915,7.2,6.818,8.5,5.615a4.056,4.056,0,0,0,1.6-2.406c0-.6-3.7-4.812-8.3-9.424L136.5,377l-8.8,8.823Q119.1,394.651,120.7,396.35Z" transform="translate(-120.448 -377)" fill="#e77345" opacity="0.57"/>
          </g>
        </g>
        <g id="Group_57" data-name="Group 57" transform="translate(293.178 427.061)" style="isolation: isolate">
          <path id="Path_54" data-name="Path 54" d="M277.9,377.28l.62.13.64.18.67.221.71.271.76.321,1.99,1.013,1.73,1.223,1.46,1.394,1.21,1.544.95,1.664.68,1.755.42,1.825.16,1.855-.1,1.865-.37,1.845-.63,1.795-.89,1.724-1.16,1.614L285.33,401l-1.68,1.333-1.95,1.133-.99.431-.98.341-.96.261-.96.18-.95.1h-.94l-.93-.07-.93-.17-.92-.241-.91-.341-.91-.431-.91-.511-.91-.6-.9-.692-.9-.792-.9-.872-.59-.592-.52-.551-.47-.521-.41-.481-.35-.471-.31-.451-.27-.441-.22-.451-.18-.461-.15-.471-.11-.5-.09-.531-.06-.572-.04-.612-.02-.682-.01-.732.03-1.123.09-1.083.14-1.033.21-.993.26-.942.32-.9.39-.862.44-.812.49-.762.56-.722.61-.682.68-.632.73-.592.79-.541.85-.5.91-.451.87-.391.8-.341.75-.291.7-.241.67-.191.63-.15.61-.1.6-.05h.58l.59.04Zm-4.75,5.855-1.29.752-1.2,1.033-1.06,1.3-1.25,2.577-.31,2.537.5,2.4,1.16,2.125,1.68,1.745,2.05,1.253,2.29.642,2.39-.07,2.34-.912,2.15-1.865.81-1.053.64-1.083.46-1.123.29-1.143.11-1.153-.06-1.143-.25-1.133-.42-1.113-.6-1.063-.78-1.023-1.25-1.183-1.34-.912-1.4-.632-1.43-.351-1.44-.08-1.42.2Z" transform="translate(-263 -377.15)" fill="#e77345" opacity="0.57"/>
          <g id="Group_56" data-name="Group 56">
            <path id="Path_55" data-name="Path 55" d="M277.9,377.28l.62.13.64.18.67.221.71.271.76.321,1.99,1.013,1.73,1.223,1.46,1.394,1.21,1.544.95,1.664.68,1.755.42,1.825.16,1.855-.1,1.865-.37,1.845-.63,1.795-.89,1.724-1.16,1.614L285.33,401l-1.68,1.333-1.95,1.133-.99.431-.98.341-.96.261-.96.18-.95.1h-.94l-.93-.07-.93-.17-.92-.241-.91-.341-.91-.431-.91-.511-.91-.6-.9-.692-.9-.792-.9-.872-.59-.592-.52-.551-.47-.521-.41-.481-.35-.471-.31-.451-.27-.441-.22-.451-.18-.461-.15-.471-.11-.5-.09-.531-.06-.572-.04-.612-.02-.682-.01-.732.03-1.123.09-1.083.14-1.033.21-.993.26-.942.32-.9.39-.862.44-.812.49-.762.56-.722.61-.682.68-.632.73-.592.79-.541.85-.5.91-.451.87-.391.8-.341.75-.291.7-.241.67-.191.63-.15.61-.1.6-.05h.58l.59.04Zm-4.75,5.855-1.29.752-1.2,1.033-1.06,1.3-1.25,2.577-.31,2.537.5,2.4,1.16,2.125,1.68,1.745,2.05,1.253,2.29.642,2.39-.07,2.34-.912,2.15-1.865.81-1.053.64-1.083.46-1.123.29-1.143.11-1.153-.06-1.143-.25-1.133-.42-1.113-.6-1.063-.78-1.023-1.25-1.183-1.34-.912-1.4-.632-1.43-.351-1.44-.08-1.42.2Z" transform="translate(-263 -377.15)" fill="#e77345" opacity="0.57"/>
          </g>
        </g>
        <g id="Group_59" data-name="Group 59" transform="translate(463 432.135)" style="isolation: isolate">
          <path id="Path_56" data-name="Path 56" d="M415.4,387.614c3.8.9,6.1,4.111,6.1,8.422s-2.3,7.519-6.1,8.422c-1.8.5-2.4,1.3-2.4,3.208,0,2.306.3,2.507,2.8,1.9a13.821,13.821,0,0,0,0-27.07c-2.5-.6-2.8-.4-2.8,1.9C413,386.311,413.6,387.113,415.4,387.614Z" transform="translate(-413 -382.211)" fill="#e77345" opacity="0.57"/>
          <g id="Group_58" data-name="Group 58">
            <path id="Path_57" data-name="Path 57" d="M415.4,387.614c3.8.9,6.1,4.111,6.1,8.422s-2.3,7.519-6.1,8.422c-1.8.5-2.4,1.3-2.4,3.208,0,2.306.3,2.507,2.8,1.9a13.821,13.821,0,0,0,0-27.07c-2.5-.6-2.8-.4-2.8,1.9C413,386.311,413.6,387.113,415.4,387.614Z" transform="translate(-413 -382.211)" fill="#e77345" opacity="0.57"/>
          </g>
        </g>
        <g id="Group_61" data-name="Group 61" transform="translate(221.91 458.994)" style="isolation: isolate">
          <path id="Path_58" data-name="Path 58" d="M205.6,415.717q.345.286,3.5,2.807-4.32,3.88-4.8,4.311c-4.2,3.71-4.6,4.411-3.2,5.514.8.6,3,2.406,4.9,3.91q.345.271,3.4,2.707c-1.44,1.143-2.24,1.775-2.4,1.9-1.4,1.1-3.6,2.908-5,4.111-.17.14-1,.842-2.5,2.105l4,3.409c3.1,2.807,4.9,3.509,8,3.509h4l-4-3.509-4-3.509,4-3.409a23.627,23.627,0,0,1,4.8-3.509c1.7-.1.4-1.9-3.8-5.013-2.5-1.9-4.5-3.71-4.5-4.211,0-.4,2-2.206,4.5-4.01a28.093,28.093,0,0,0,4.5-3.91c0-.6-11.4-9.926-12.2-9.926a5.527,5.527,0,0,0-1.5,2.005C202.2,412.71,202.4,413.311,205.6,415.717Z" transform="translate(-199.5 -409)" fill="#e77345" opacity="0.57"/>
          <g id="Group_60" data-name="Group 60">
            <path id="Path_59" data-name="Path 59" d="M205.6,415.717q.345.286,3.5,2.807-4.32,3.88-4.8,4.311c-4.2,3.71-4.6,4.411-3.2,5.514.8.6,3,2.406,4.9,3.91q.345.271,3.4,2.707c-1.44,1.143-2.24,1.775-2.4,1.9-1.4,1.1-3.6,2.908-5,4.111-.17.14-1,.842-2.5,2.105l4,3.409c3.1,2.807,4.9,3.509,8,3.509h4l-4-3.509-4-3.509,4-3.409a23.627,23.627,0,0,1,4.8-3.509c1.7-.1.4-1.9-3.8-5.013-2.5-1.9-4.5-3.71-4.5-4.211,0-.4,2-2.206,4.5-4.01a28.093,28.093,0,0,0,4.5-3.91c0-.6-11.4-9.926-12.2-9.926a5.527,5.527,0,0,0-1.5,2.005C202.2,412.71,202.4,413.311,205.6,415.717Z" transform="translate(-199.5 -409)" fill="#e77345" opacity="0.57"/>
          </g>
        </g>
        <g id="Group_63" data-name="Group 63" transform="translate(33 462.002)" style="isolation: isolate">
          <path id="Path_60" data-name="Path 60" d="M37.8,422.327a13.959,13.959,0,0,0,12.3,2.707C57.4,423.029,63.7,412,57.5,412c-1.8,0-2.5.5-2.5,1.8,0,3.108-4.2,6.216-8.4,6.216-3.9,0-8.6-3.509-8.6-6.517,0-.9-.9-1.5-2.5-1.5s-2.5.6-2.5,1.5C33,415.71,35.4,420.221,37.8,422.327Z" transform="translate(-33 -412)" fill="#e77345" opacity="0.57"/>
          <g id="Group_62" data-name="Group 62">
            <path id="Path_61" data-name="Path 61" d="M37.8,422.327a13.959,13.959,0,0,0,12.3,2.707C57.4,423.029,63.7,412,57.5,412c-1.8,0-2.5.5-2.5,1.8,0,3.108-4.2,6.216-8.4,6.216-3.9,0-8.6-3.509-8.6-6.517,0-.9-.9-1.5-2.5-1.5s-2.5.6-2.5,1.5C33,415.71,35.4,420.221,37.8,422.327Z" transform="translate(-33 -412)" fill="#e77345" opacity="0.57"/>
          </g>
        </g>
      </g>
    </g>
    <g id="Group_88" data-name="Group 88" transform="translate(2 2)" style="isolation: isolate">
      <g id="Group_9-2" data-name="Group 9" transform="translate(308.641 1)">
        <path id="Path_6-2" data-name="Path 6" d="M276.5,32.08c.9,0,25.5-14.237,26-15.039.4-.6-13.8-9.224-25.7-15.741-.5-.2-.8,6.617-.8,15.139C276,25.062,276.2,32.08,276.5,32.08Z" transform="translate(-276 -1.296)" fill="#f9f9f9"/>
        <g id="Group_8-2" data-name="Group 8">
          <path id="Path_7-2" data-name="Path 7" d="M276.5,32.08c.9,0,25.5-14.237,26-15.039.4-.6-13.8-9.224-25.7-15.741-.5-.2-.8,6.617-.8,15.139C276,25.062,276.2,32.08,276.5,32.08Z" transform="translate(-276 -1.296)" fill="#f9f9f9" opacity="0.57"/>
        </g>
      </g>
      <g id="Group_11-2" data-name="Group 11" transform="translate(480.5 5.3)">
        <path id="Path_8-2" data-name="Path 8" d="M429.5,24.048l9.4,9.424c5.2,5.214,9.8,9.324,10.3,9.023.4-.3.8-2.105.8-4.01s-.4-3.309-.8-3.008c-.5.3-3.5-2.206-6.7-5.414q-.585-.6-5.9-6.016,5.31-5.414,5.9-6.016c3.2-3.208,6.2-5.715,6.7-5.414.4.3.8-1.1.8-3.008s-.4-3.71-.8-4.01c-.5-.3-5.1,3.81-10.3,9.023Z" transform="translate(-429.5 -5.585)" fill="#f9f9f9"/>
        <g id="Group_10-2" data-name="Group 10">
          <path id="Path_9-2" data-name="Path 9" d="M429.5,24.048l9.4,9.424c5.2,5.214,9.8,9.324,10.3,9.023.4-.3.8-2.105.8-4.01s-.4-3.309-.8-3.008c-.5.3-3.5-2.206-6.7-5.414q-.585-.6-5.9-6.016,5.31-5.414,5.9-6.016c3.2-3.208,6.2-5.715,6.7-5.414.4.3.8-1.1.8-3.008s-.4-3.71-.8-4.01c-.5-.3-5.1,3.81-10.3,9.023Z" transform="translate(-429.5 -5.585)" fill="#f9f9f9" opacity="0.57"/>
        </g>
      </g>
      <g id="Group_13-2" data-name="Group 13" transform="translate(1 6.218)">
        <path id="Path_10-2" data-name="Path 10" d="M5.2,18.732q.525.526,5.2,5.314-4.68,4.782-5.2,5.314C.9,33.67,0,35.275,0,38.082v3.509l8.7-8.823,8.8-8.723L8.7,15.323,0,6.5v3.509Q.9,14.416,5.2,18.732Z" transform="translate(0 -6.5)" fill="#f9f9f9"/>
        <g id="Group_12-2" data-name="Group 12">
          <path id="Path_11-2" data-name="Path 11" d="M5.2,18.732q.525.526,5.2,5.314-4.68,4.782-5.2,5.314C.9,33.67,0,35.275,0,38.082v3.509l8.7-8.823,8.8-8.723L8.7,15.323,0,6.5v3.509Q.9,14.416,5.2,18.732Z" transform="translate(0 -6.5)" fill="#f9f9f9" opacity="0.57"/>
        </g>
      </g>
      <g id="Group_15-2" data-name="Group 15" transform="translate(128.2 41.81)">
        <path id="Path_12-2" data-name="Path 12" d="M114.4,73.081c.2,0,6.6-3.609,14.1-7.921q1.365-.8,13.7-7.921-6.66-3.79-7.4-4.211c-4-2.406-9.9-5.815-13.1-7.62C118.5,43.5,115.5,42,115,42s-.9,7.018-.9,15.54C114,66.062,114.2,73.081,114.4,73.081Z" transform="translate(-114.073 -42)" fill="#f9f9f9"/>
        <g id="Group_14-2" data-name="Group 14">
          <path id="Path_13-2" data-name="Path 13" d="M114.4,73.081c.2,0,6.6-3.609,14.1-7.921q1.365-.8,13.7-7.921-6.66-3.79-7.4-4.211c-4-2.406-9.9-5.815-13.1-7.62C118.5,43.5,115.5,42,115,42s-.9,7.018-.9,15.54C114,66.062,114.2,73.081,114.4,73.081Z" transform="translate(-114.073 -42)" fill="#f9f9f9" opacity="0.57"/>
        </g>
      </g>
      <g id="Group_17-2" data-name="Group 17" transform="translate(223.949 44.968)">
        <path id="Path_14-2" data-name="Path 14" d="M214.9,45.28l.62.13.64.18.67.221.71.271.76.321,1.99,1.013,1.73,1.223,1.46,1.394,1.21,1.544.95,1.664L226.32,55l.42,1.825.16,1.855-.1,1.865-.37,1.845-.63,1.795-.89,1.724-1.16,1.614L222.33,69l-1.68,1.333-1.95,1.133-.99.431-.98.341-.96.261-.96.18-.95.1h-.94l-.93-.07-.93-.17-.92-.241-.91-.341-.91-.431-.91-.511-.91-.6-.9-.692-.9-.792-.9-.872-.59-.592-.52-.551-.47-.521-.41-.481-.35-.471-.31-.451-.27-.441-.22-.451-.18-.461-.15-.471-.11-.5-.09-.531-.06-.571-.04-.612-.02-.682-.01-.732.03-1.123.09-1.083.14-1.033.21-.993.26-.942.32-.9.39-.862.44-.812.49-.762.56-.722.61-.682.68-.632.73-.592.79-.541.85-.5.91-.451.87-.391.8-.341.75-.291.7-.241.67-.19.63-.15.61-.1.6-.05h.58l.59.04Zm-4.75,5.855-1.29.752-1.2,1.033-1.06,1.3L205.35,56.8l-.31,2.537.5,2.4,1.16,2.126,1.68,1.745,2.05,1.253,2.29.642,2.39-.07,2.34-.912,2.15-1.865.81-1.053.64-1.083.46-1.123.29-1.143.11-1.153-.06-1.143-.25-1.133-.42-1.113-.6-1.063-.78-1.023-1.25-1.183-1.34-.912-1.4-.632-1.43-.351-1.44-.08-1.42.2Z" transform="translate(-200 -45.15)" fill="#f9f9f9"/>
        <g id="Group_16-2" data-name="Group 16">
          <path id="Path_15-2" data-name="Path 15" d="M214.9,45.28l.62.13.64.18.67.221.71.271.76.321,1.99,1.013,1.73,1.223,1.46,1.394,1.21,1.544.95,1.664L226.32,55l.42,1.825.16,1.855-.1,1.865-.37,1.845-.63,1.795-.89,1.724-1.16,1.614L222.33,69l-1.68,1.333-1.95,1.133-.99.431-.98.341-.96.261-.96.18-.95.1h-.94l-.93-.07-.93-.17-.92-.241-.91-.341-.91-.431-.91-.511-.91-.6-.9-.692-.9-.792-.9-.872-.59-.592-.52-.551-.47-.521-.41-.481-.35-.471-.31-.451-.27-.441-.22-.451-.18-.461-.15-.471-.11-.5-.09-.531-.06-.571-.04-.612-.02-.682-.01-.732.03-1.123.09-1.083.14-1.033.21-.993.26-.942.32-.9.39-.862.44-.812.49-.762.56-.722.61-.682.68-.632.73-.592.79-.541.85-.5.91-.451.87-.391.8-.341.75-.291.7-.241.67-.19.63-.15.61-.1.6-.05h.58l.59.04Zm-4.75,5.855-1.29.752-1.2,1.033-1.06,1.3L205.35,56.8l-.31,2.537.5,2.4,1.16,2.126,1.68,1.745,2.05,1.253,2.29.642,2.39-.07,2.34-.912,2.15-1.865.81-1.053.64-1.083.46-1.123.29-1.143.11-1.153-.06-1.143-.25-1.133-.42-1.113-.6-1.063-.78-1.023-1.25-1.183-1.34-.912-1.4-.632-1.43-.351-1.44-.08-1.42.2Z" transform="translate(-200 -45.15)" fill="#f9f9f9" opacity="0.57"/>
        </g>
      </g>
      <g id="Group_19-2" data-name="Group 19" transform="translate(408.84 58.854)">
        <path id="Path_16-2" data-name="Path 16" d="M363,86.07V59h27V86.07Zm5-5.013h17V64.013H368Z" transform="translate(-363 -59)" fill="#f9f9f9"/>
        <g id="Group_18-2" data-name="Group 18">
          <path id="Path_17-2" data-name="Path 17" d="M363,86.07V59h27V86.07Zm5-5.013h17V64.013H368Z" transform="translate(-363 -59)" fill="#f9f9f9" opacity="0.57"/>
        </g>
      </g>
      <g id="Group_21-2" data-name="Group 21" transform="translate(47.5 86.234)">
        <path id="Path_18-2" data-name="Path 18" d="M52.7,83.617l3.7,2.807-4.9,4.311-4.9,4.211,2.5,1.9c1.3,1.1,3.5,2.908,4.9,4.01.17.13,1,.8,2.5,2.005-1.5,1.2-2.33,1.875-2.5,2.005-1.4,1.1-3.6,2.908-5,4.01-.17.13-1,.8-2.5,2.005,1.5,1.2,2.33,1.875,2.5,2.005,6.5,5.113,7.5,6.216,6.4,6.918-.6.5-2.3,1.8-3.9,3.108-2.7,2.105-2.7,2.306-1,4.211s1.8,1.8,7.4-2.707a49.607,49.607,0,0,0,5.9-5.314c.1-.4-1.8-2.206-4.2-4.111-2.5-1.9-4.6-3.71-4.6-4.01s2-2.005,4.5-3.91,4.5-3.609,4.5-3.91-2.1-2.406-4.6-4.612l-4.7-4.111,4.6-3.409c2.6-1.9,4.7-3.81,4.7-4.211C64,86.023,53.2,77,52.1,77c-.3,0-1.2.9-1.8,1.9C49.2,80.609,49.6,81.211,52.7,83.617Z" transform="translate(-46.5 -77)" fill="#f9f9f9"/>
        <g id="Group_20-2" data-name="Group 20">
          <path id="Path_19-2" data-name="Path 19" d="M52.7,83.617l3.7,2.807-4.9,4.311-4.9,4.211,2.5,1.9c1.3,1.1,3.5,2.908,4.9,4.01.17.13,1,.8,2.5,2.005-1.5,1.2-2.33,1.875-2.5,2.005-1.4,1.1-3.6,2.908-5,4.01-.17.13-1,.8-2.5,2.005,1.5,1.2,2.33,1.875,2.5,2.005,6.5,5.113,7.5,6.216,6.4,6.918-.6.5-2.3,1.8-3.9,3.108-2.7,2.105-2.7,2.306-1,4.211s1.8,1.8,7.4-2.707a49.607,49.607,0,0,0,5.9-5.314c.1-.4-1.8-2.206-4.2-4.111-2.5-1.9-4.6-3.71-4.6-4.01s2-2.005,4.5-3.91,4.5-3.609,4.5-3.91-2.1-2.406-4.6-4.612l-4.7-4.111,4.6-3.409c2.6-1.9,4.7-3.81,4.7-4.211C64,86.023,53.2,77,52.1,77c-.3,0-1.2.9-1.8,1.9C49.2,80.609,49.6,81.211,52.7,83.617Z" transform="translate(-46.5 -77)" fill="#f9f9f9" opacity="0.57"/>
        </g>
      </g>
      <g id="Group_23-2" data-name="Group 23" transform="translate(281.074 89.419)">
        <path id="Path_20-2" data-name="Path 20" d="M251,107.571c0,.3,7,.5,15.5.5s15.5-.2,15.5-.5c0-.5-14.8-26.669-15.3-27.271-.1-.1-3.7,5.915-7.9,13.234C254.5,100.954,251,107.17,251,107.571Z" transform="translate(-251 -80.299)" fill="#f9f9f9"/>
        <g id="Group_22-2" data-name="Group 22">
          <path id="Path_21-2" data-name="Path 21" d="M251,107.571c0,.3,7,.5,15.5.5s15.5-.2,15.5-.5c0-.5-14.8-26.669-15.3-27.271-.1-.1-3.7,5.915-7.9,13.234C254.5,100.954,251,107.17,251,107.571Z" transform="translate(-251 -80.299)" fill="#f9f9f9" opacity="0.57"/>
        </g>
      </g>
      <g id="Group_25-2" data-name="Group 25" transform="translate(486 104.859)">
        <path id="Path_22-2" data-name="Path 22" d="M435.9,99.013c.5,0,2.3,1.2,4,2.607,2.3,1.9,3.1,3.409,3.1,5.915,0,3.81-3.3,8.522-6.1,8.522-1.4,0-1.9.7-1.9,2.908,0,2.908.1,2.908,3.3,2.005a17.4,17.4,0,0,0,6.5-4.411c2.6-2.908,3.2-4.311,3.2-8.121,0-5.815-2.8-10.628-7.4-12.833s-5.6-2.005-5.6.9C435,97.91,435.4,99.013,435.9,99.013Z" transform="translate(-435 -94.115)" fill="#f9f9f9"/>
        <g id="Group_24-2" data-name="Group 24">
          <path id="Path_23-2" data-name="Path 23" d="M435.9,99.013c.5,0,2.3,1.2,4,2.607,2.3,1.9,3.1,3.409,3.1,5.915,0,3.81-3.3,8.522-6.1,8.522-1.4,0-1.9.7-1.9,2.908,0,2.908.1,2.908,3.3,2.005a17.4,17.4,0,0,0,6.5-4.411c2.6-2.908,3.2-4.311,3.2-8.121,0-5.815-2.8-10.628-7.4-12.833s-5.6-2.005-5.6.9C435,97.91,435.4,99.013,435.9,99.013Z" transform="translate(-435 -94.115)" fill="#f9f9f9" opacity="0.57"/>
        </g>
      </g>
      <g id="Group_27-2" data-name="Group 27" transform="translate(140.735 127.547)">
        <path id="Path_24-2" data-name="Path 24" d="M144.2,114.19l.18.13.22.18.28.231.32.281.37.331.41.371.44.411.49.451.52.491.55.531.58.551.6.592.64.612.65.652.68.662.69.692.72.7.72.722.74.742,9.5,9.525L144,152.6l-19-19.25,9.3-9.525.71-.752.7-.732.69-.722.67-.7.65-.672.64-.652.61-.632.59-.592.56-.571.54-.541.5-.5.47-.461.44-.421.39-.391.36-.341.32-.3.27-.251.22-.2.18-.15.12-.1.07-.04.07.02Zm-11.7,18.859,12,12.031,11.6-11.63-6-6.116-6-6.016-5.8,5.915Z" transform="translate(-125 -114.1)" fill="#f9f9f9"/>
        <g id="Group_26-2" data-name="Group 26">
          <path id="Path_25-2" data-name="Path 25" d="M144.2,114.19l.18.13.22.18.28.231.32.281.37.331.41.371.44.411.49.451.52.491.55.531.58.551.6.592.64.612.65.652.68.662.69.692.72.7.72.722.74.742,9.5,9.525L144,152.6l-19-19.25,9.3-9.525.71-.752.7-.732.69-.722.67-.7.65-.672.64-.652.61-.632.59-.592.56-.571.54-.541.5-.5.47-.461.44-.421.39-.391.36-.341.32-.3.27-.251.22-.2.18-.15.12-.1.07-.04.07.02Zm-11.7,18.859,12,12.031,11.6-11.63-6-6.116-6-6.016-5.8,5.915Z" transform="translate(-125 -114.1)" fill="#f9f9f9" opacity="0.57"/>
        </g>
      </g>
      <g id="Group_29-2" data-name="Group 29" transform="translate(378.21 159.596)">
        <path id="Path_26-2" data-name="Path 26" d="M353.87,143.18l.98.13.95.17.91.221.86.281.8.331.73.391.31.211.32.241.33.281.34.311.35.331.35.371.34.381.35.4.34.431.33.431.32.441.3.451.29.461.26.461.25.461.22.451.47,1.023.38,1,.3.993.22.963.13.962.05.942-.03.932-.12.922-.2.922-.29.912-.37.912-.46.9-.54.912-.63.9-.71.912-.8.922-.57.622-.52.541-.48.481-.45.411-.43.361-.43.3-.44.251-.45.2-.49.17-.53.12-.58.1-.65.06-.72.05-.82.02-.91.02h-2.06l-.91-.02-.82-.02-.72-.05-.65-.06-.58-.1-.53-.12-.48-.17-.46-.2-.44-.251-.43-.3-.43-.361-.45-.411-.48-.481-.52-.541-.57-.622-.8-.922-.71-.912-.63-.9-.54-.912-.46-.9-.37-.912-.29-.912-.2-.922-.12-.922-.03-.932.05-.942.13-.962.22-.963.3-.993.38-1,.47-1.023.22-.451.24-.461.26-.461.28-.451.3-.451.31-.451.31-.431.33-.411.33-.4.33-.381.33-.351.33-.331.32-.3.32-.261.3-.231.29-.191.71-.391.79-.341.85-.281.9-.241.94-.19.97-.14,1-.08,1-.04,1.01.02Zm-3.33,4.923-.66.11-.63.16-.59.211-.56.271-.55.331-.52.381-.52.441-.51.511-1.72,2.456-.74,2.527.11,2.476.83,2.286,1.43,1.955,1.9,1.514,2.25.932,2.46.221,2.56-.632,2.52-1.6,1-.993.79-1.1.57-1.193.36-1.253.14-1.3-.07-1.313-.28-1.3-.49-1.283-.71-1.233-.91-1.153-.51-.511-.52-.441-.52-.381-.55-.331-.56-.271-.59-.211-.63-.16-.66-.11-.71-.07-.75-.02-.75.02Z" transform="translate(-338.35 -143.1)" fill="#f9f9f9"/>
        <g id="Group_28-2" data-name="Group 28">
          <path id="Path_27-2" data-name="Path 27" d="M353.87,143.18l.98.13.95.17.91.221.86.281.8.331.73.391.31.211.32.241.33.281.34.311.35.331.35.371.34.381.35.4.34.431.33.431.32.441.3.451.29.461.26.461.25.461.22.451.47,1.023.38,1,.3.993.22.963.13.962.05.942-.03.932-.12.922-.2.922-.29.912-.37.912-.46.9-.54.912-.63.9-.71.912-.8.922-.57.622-.52.541-.48.481-.45.411-.43.361-.43.3-.44.251-.45.2-.49.17-.53.12-.58.1-.65.06-.72.05-.82.02-.91.02h-2.06l-.91-.02-.82-.02-.72-.05-.65-.06-.58-.1-.53-.12-.48-.17-.46-.2-.44-.251-.43-.3-.43-.361-.45-.411-.48-.481-.52-.541-.57-.622-.8-.922-.71-.912-.63-.9-.54-.912-.46-.9-.37-.912-.29-.912-.2-.922-.12-.922-.03-.932.05-.942.13-.962.22-.963.3-.993.38-1,.47-1.023.22-.451.24-.461.26-.461.28-.451.3-.451.31-.451.31-.431.33-.411.33-.4.33-.381.33-.351.33-.331.32-.3.32-.261.3-.231.29-.191.71-.391.79-.341.85-.281.9-.241.94-.19.97-.14,1-.08,1-.04,1.01.02Zm-3.33,4.923-.66.11-.63.16-.59.211-.56.271-.55.331-.52.381-.52.441-.51.511-1.72,2.456-.74,2.527.11,2.476.83,2.286,1.43,1.955,1.9,1.514,2.25.932,2.46.221,2.56-.632,2.52-1.6,1-.993.79-1.1.57-1.193.36-1.253.14-1.3-.07-1.313-.28-1.3-.49-1.283-.71-1.233-.91-1.153-.51-.511-.52-.441-.52-.381-.55-.331-.56-.271-.59-.211-.63-.16-.66-.11-.71-.07-.75-.02-.75.02Z" transform="translate(-338.35 -143.1)" fill="#f9f9f9" opacity="0.57"/>
        </g>
      </g>
      <g id="Group_31-2" data-name="Group 31" transform="translate(460 182.9)">
        <path id="Path_28-2" data-name="Path 28" d="M428,183.551l-9.5-.3-9.5-.3v6.116h24V164h-2.5c-2.5,0-2.5,0-2.5,9.725Z" transform="translate(-409 -164)" fill="#f9f9f9"/>
        <g id="Group_30-2" data-name="Group 30">
          <path id="Path_29-2" data-name="Path 29" d="M428,183.551l-9.5-.3-9.5-.3v6.116h24V164h-2.5c-2.5,0-2.5,0-2.5,9.725Z" transform="translate(-409 -164)" fill="#f9f9f9" opacity="0.57"/>
        </g>
      </g>
      <g id="Group_33-2" data-name="Group 33" transform="translate(23.9 205.352)">
        <path id="Path_30-2" data-name="Path 30" d="M36.8,210.87l-13.3-.3-.3-13.335L22.9,184H50v27.17Zm-8.6-13.635.3,8.322,8.3.3,8.2.3V189.013H27.9Z" transform="translate(-22.9 -184)" fill="#f9f9f9"/>
        <g id="Group_32-2" data-name="Group 32">
          <path id="Path_31-2" data-name="Path 31" d="M36.8,210.87l-13.3-.3-.3-13.335L22.9,184H50v27.17Zm-8.6-13.635.3,8.322,8.3.3,8.2.3V189.013H27.9Z" transform="translate(-22.9 -184)" fill="#f9f9f9" opacity="0.57"/>
        </g>
      </g>
      <g id="Group_35-2" data-name="Group 35" transform="translate(113.068 223.784)">
        <path id="Path_32-2" data-name="Path 32" d="M100.1,214.636c1.7,2.105,3,1.7,6.1-1.9.19-.211,1.12-1.283,2.8-3.208l4,4.512,4,4.512q3.42-3.88,3.8-4.311c2-2.306,4-4.211,4.3-4.211.4,0,2.2,2.005,4.2,4.512q.345.466,3.5,4.612l4.3-5.113,4.2-5.013c1.5,2.105,2.33,3.279,2.5,3.509,2.7,3.71,4.3,4.311,6.1,2.105.9-1,0-2.707-3.8-7.519l-5-6.216-4,5.013-3.9,5.113-4-5.013-4-5.013-4.1,4.812-4.1,4.712-4.2-4.712-4.3-4.712-4.8,6.116Q99.2,213.638,100.1,214.636Z" transform="translate(-99.95 -200.9)" fill="#f9f9f9"/>
        <g id="Group_34-2" data-name="Group 34">
          <path id="Path_33-2" data-name="Path 33" d="M100.1,214.636c1.7,2.105,3,1.7,6.1-1.9.19-.211,1.12-1.283,2.8-3.208l4,4.512,4,4.512q3.42-3.88,3.8-4.311c2-2.306,4-4.211,4.3-4.211.4,0,2.2,2.005,4.2,4.512q.345.466,3.5,4.612l4.3-5.113,4.2-5.013c1.5,2.105,2.33,3.279,2.5,3.509,2.7,3.71,4.3,4.311,6.1,2.105.9-1,0-2.707-3.8-7.519l-5-6.216-4,5.013-3.9,5.113-4-5.013-4-5.013-4.1,4.812-4.1,4.712-4.2-4.712-4.3-4.712-4.8,6.116Q99.2,213.638,100.1,214.636Z" transform="translate(-99.95 -200.9)" fill="#f9f9f9" opacity="0.57"/>
        </g>
      </g>
      <g id="Group_37-2" data-name="Group 37" transform="translate(371.069 234.59)">
        <path id="Path_34-2" data-name="Path 34" d="M330.6,224.737c1.7,1.3,2.2,1.1,5-2.206q.315-.361,3.2-3.609l3.7,4.612c2.1,2.507,4.1,4.512,4.5,4.512.3,0,2.2-2.105,4-4.712q.345-.466,3.4-4.612l4.3,4.913,4.3,4.913c1.26-1.5,1.96-2.336,2.1-2.507,1.2-1.4,3-3.609,4.1-5.013,1.2-1.5,2.2-2.005,2.6-1.4s1.7,2.306,2.9,3.81c2,2.506,2.4,2.607,4.3,1.3,2.2-1.5,2.5-1-7.8-13.736-.2-.3-.9.2-1.5,1.1-.7.8-2.5,3.108-4,5.013l-2.8,3.409c-1.2-1.5-1.87-2.336-2-2.506-1.2-1.4-3-3.609-4.1-5.013-.13-.16-.76-.963-1.9-2.406q-2.43,3.068-2.7,3.409c-1.5,1.9-3.3,4.111-3.9,4.913-1.1,1.4-1.8,1-5.6-3.309l-4.3-4.913-4.9,6.316Q328.7,223.333,330.6,224.737Z" transform="translate(-330.06 -210.6)" fill="#f9f9f9"/>
        <g id="Group_36-2" data-name="Group 36">
          <path id="Path_35-2" data-name="Path 35" d="M330.6,224.737c1.7,1.3,2.2,1.1,5-2.206q.315-.361,3.2-3.609l3.7,4.612c2.1,2.507,4.1,4.512,4.5,4.512.3,0,2.2-2.105,4-4.712q.345-.466,3.4-4.612l4.3,4.913,4.3,4.913c1.26-1.5,1.96-2.336,2.1-2.507,1.2-1.4,3-3.609,4.1-5.013,1.2-1.5,2.2-2.005,2.6-1.4s1.7,2.306,2.9,3.81c2,2.506,2.4,2.607,4.3,1.3,2.2-1.5,2.5-1-7.8-13.736-.2-.3-.9.2-1.5,1.1-.7.8-2.5,3.108-4,5.013l-2.8,3.409c-1.2-1.5-1.87-2.336-2-2.506-1.2-1.4-3-3.609-4.1-5.013-.13-.16-.76-.963-1.9-2.406q-2.43,3.068-2.7,3.409c-1.5,1.9-3.3,4.111-3.9,4.913-1.1,1.4-1.8,1-5.6-3.309l-4.3-4.913-4.9,6.316Q328.7,223.333,330.6,224.737Z" transform="translate(-330.06 -210.6)" fill="#f9f9f9" opacity="0.57"/>
        </g>
      </g>
      <g id="Group_39-2" data-name="Group 39" transform="translate(259.757 245.131)">
        <path id="Path_36-2" data-name="Path 36" d="M250.5,257.1l-19-19.049L250.5,219l19,19.049Zm-.43-29.907-.33.2-.38.281-.45.351-.49.4-.55.461-.58.511-.61.561-.65.6-.66.632-.68.662-.69.682-5.4,5.514,5.9,6.016,6,6.016,12-12.031-5.5-5.514-.69-.682-.68-.662-.66-.632-.65-.6-.61-.561-.58-.511-.55-.461-.49-.4-.45-.351-.38-.281-.33-.2-.25-.13-.18-.04-.18.04Z" transform="translate(-231.5 -219)" fill="#f9f9f9"/>
        <g id="Group_38-2" data-name="Group 38">
          <path id="Path_37-2" data-name="Path 37" d="M250.5,257.1l-19-19.049L250.5,219l19,19.049Zm-.43-29.907-.33.2-.38.281-.45.351-.49.4-.55.461-.58.511-.61.561-.65.6-.66.632-.68.662-.69.682-5.4,5.514,5.9,6.016,6,6.016,12-12.031-5.5-5.514-.69-.682-.68-.662-.66-.632-.65-.6-.61-.561-.58-.511-.55-.461-.49-.4-.45-.351-.38-.281-.33-.2-.25-.13-.18-.04-.18.04Z" transform="translate(-231.5 -219)" fill="#f9f9f9" opacity="0.57"/>
        </g>
      </g>
      <g id="Group_41-2" data-name="Group 41" transform="translate(169.438 270.233)">
        <path id="Path_38-2" data-name="Path 38" d="M166.1,242.14l.91.14.9.19.89.251.87.311.84.361.81.431.78.481.73.511.68.531.62.531.57.551.52.561.47.582.43.612.37.642.33.662.29.7.24.742.21.782.16.822.12.872.09.922.05.973.02,1.033-.01.682-.01.632-.04.582-.05.541-.07.511-.09.481-.11.461-.14.431-.17.431-.2.411-.23.421-.26.411-.3.431-.34.441-.38.451-.43.491-.47.511-.48.521-.46.471-.43.431-.43.381-.41.351-.41.3-.41.271-.42.241-.43.2-.44.18-.47.16-.49.14-.52.11-.56.11-.6.09-.64.08-.7.07-1.08.08-1.03.02-1.01-.03-.96-.08-.93-.14-.89-.19-.86-.241-.82-.3-.78-.351-.75-.411-.72-.461-.68-.521-.65-.561-.61-.632-.58-.672-.54-.742-.51-.782-.61-1.1-.49-1.143-.37-1.183-.26-1.2-.14-1.213-.03-1.233.08-1.223.19-1.223.29-1.2.39-1.173.5-1.143.59-1.1.69-1.053.78-1,.87-.922.97-.852,1.05-.772.74-.451.79-.391.81-.331.85-.271.87-.221.89-.15.9-.1.92-.04.91.02Zm-3.66,5.394-1.2.582-1.18.8-1.16,1-.88.973-.71.932-.54.922-.38.922-.21.922-.06.963.11.993.26,1.053.43,1.133.58,1.213.49.892.5.772.54.642.6.531.66.421.74.331.83.241.95.16,1.08.09,1.21.03,1.99-.271,1.76-.752,1.49-1.153,1.18-1.474.86-1.7.48-1.855.09-1.935L172.61,253l-.81-1.825-1.3-1.654-1.05-.942-1.1-.722-1.14-.5-1.17-.281-1.19-.06-1.2.15Z" transform="translate(-151.1 -242.05)" fill="#f9f9f9"/>
        <g id="Group_40-2" data-name="Group 40">
          <path id="Path_39-2" data-name="Path 39" d="M166.1,242.14l.91.14.9.19.89.251.87.311.84.361.81.431.78.481.73.511.68.531.62.531.57.551.52.561.47.582.43.612.37.642.33.662.29.7.24.742.21.782.16.822.12.872.09.922.05.973.02,1.033-.01.682-.01.632-.04.582-.05.541-.07.511-.09.481-.11.461-.14.431-.17.431-.2.411-.23.421-.26.411-.3.431-.34.441-.38.451-.43.491-.47.511-.48.521-.46.471-.43.431-.43.381-.41.351-.41.3-.41.271-.42.241-.43.2-.44.18-.47.16-.49.14-.52.11-.56.11-.6.09-.64.08-.7.07-1.08.08-1.03.02-1.01-.03-.96-.08-.93-.14-.89-.19-.86-.241-.82-.3-.78-.351-.75-.411-.72-.461-.68-.521-.65-.561-.61-.632-.58-.672-.54-.742-.51-.782-.61-1.1-.49-1.143-.37-1.183-.26-1.2-.14-1.213-.03-1.233.08-1.223.19-1.223.29-1.2.39-1.173.5-1.143.59-1.1.69-1.053.78-1,.87-.922.97-.852,1.05-.772.74-.451.79-.391.81-.331.85-.271.87-.221.89-.15.9-.1.92-.04.91.02Zm-3.66,5.394-1.2.582-1.18.8-1.16,1-.88.973-.71.932-.54.922-.38.922-.21.922-.06.963.11.993.26,1.053.43,1.133.58,1.213.49.892.5.772.54.642.6.531.66.421.74.331.83.241.95.16,1.08.09,1.21.03,1.99-.271,1.76-.752,1.49-1.153,1.18-1.474.86-1.7.48-1.855.09-1.935L172.61,253l-.81-1.825-1.3-1.654-1.05-.942-1.1-.722-1.14-.5-1.17-.281-1.19-.06-1.2.15Z" transform="translate(-151.1 -242.05)" fill="#f9f9f9" opacity="0.57"/>
        </g>
      </g>
      <g id="Group_43-2" data-name="Group 43" transform="translate(463 270.257)">
        <path id="Path_40-2" data-name="Path 40" d="M412,269.471c0,.3,7,.6,15.5.6s15.5-.2,15.5-.5-3.5-6.617-7.9-14.036q-.795-1.353-7.9-13.535l-7.6,13.435Q411.995,269.165,412,269.471Z" transform="translate(-412 -242)" fill="#f9f9f9"/>
        <g id="Group_42-2" data-name="Group 42">
          <path id="Path_41-2" data-name="Path 41" d="M412,269.471c0,.3,7,.6,15.5.6s15.5-.2,15.5-.5-3.5-6.617-7.9-14.036q-.795-1.353-7.9-13.535l-7.6,13.435Q411.995,269.165,412,269.471Z" transform="translate(-412 -242)" fill="#f9f9f9" opacity="0.57"/>
        </g>
      </g>
      <g id="Group_45-2" data-name="Group 45" transform="translate(53 293.534)">
        <path id="Path_42-2" data-name="Path 42" d="M72,283.052H52v5.013H77V263H72v20.052Z" transform="translate(-52 -263)" fill="#f9f9f9"/>
        <g id="Group_44-2" data-name="Group 44">
          <path id="Path_43-2" data-name="Path 43" d="M72,283.052H52v5.013H77V263H72v20.052Z" transform="translate(-52 -263)" fill="#f9f9f9" opacity="0.57"/>
        </g>
      </g>
      <g id="Group_47-2" data-name="Group 47" transform="translate(321.917 309.903)">
        <path id="Path_44-2" data-name="Path 44" d="M288.3,296.749c1.6,1.6,2.1,1.4,8.6-5.113q.705-.692,7-6.918l6.5,6.818c6.5,6.717,6.7,6.818,8.7,5.013,2-1.9,1.9-1.9-6.3-10.227C308.3,281.71,304.3,278,304,278s-4.3,3.81-9,8.522C287,294.543,286.6,295.144,288.3,296.749Z" transform="translate(-287.485 -278)" fill="#f9f9f9"/>
        <g id="Group_46-2" data-name="Group 46">
          <path id="Path_45-2" data-name="Path 45" d="M288.3,296.749c1.6,1.6,2.1,1.4,8.6-5.113q.705-.692,7-6.918l6.5,6.818c6.5,6.717,6.7,6.818,8.7,5.013,2-1.9,1.9-1.9-6.3-10.227C308.3,281.71,304.3,278,304,278s-4.3,3.81-9,8.522C287,294.543,286.6,295.144,288.3,296.749Z" transform="translate(-287.485 -278)" fill="#f9f9f9" opacity="0.57"/>
        </g>
      </g>
      <g id="Group_49-2" data-name="Group 49" transform="translate(209.537 356.55)">
        <path id="Path_46-2" data-name="Path 46" d="M186.1,333.636c1.8,2.105,3.2,1.6,6-2.206q.27-.346,2.7-3.509l4,5.113,4,5.013,4.1-4.812,4.1-4.712,4,4.512,4,4.512,4-4.512,4-4.512q2.61,2.978,2.9,3.309c2.5,2.908,3.2,3.208,5,2.206,2.4-1.3,2.3-1.5-3.3-8.522-2.2-2.807-4.1-5.214-4.3-5.414-.2-.3-1.1.5-1.9,1.8-.9,1.2-2.7,3.409-4,4.913l-2.4,2.707-4.4-5.013c-2.5-2.807-4.6-4.612-4.6-4.01,0,.5-1.6,2.807-3.5,5.013q-.345.406-3.5,4.01l-4.3-4.812-4.2-4.812-4.7,6.216Q185.3,332.628,186.1,333.636Z" transform="translate(-185.98 -319.9)" fill="#f9f9f9"/>
        <g id="Group_48-2" data-name="Group 48">
          <path id="Path_47-2" data-name="Path 47" d="M186.1,333.636c1.8,2.105,3.2,1.6,6-2.206q.27-.346,2.7-3.509l4,5.113,4,5.013,4.1-4.812,4.1-4.712,4,4.512,4,4.512,4-4.512,4-4.512q2.61,2.978,2.9,3.309c2.5,2.908,3.2,3.208,5,2.206,2.4-1.3,2.3-1.5-3.3-8.522-2.2-2.807-4.1-5.214-4.3-5.414-.2-.3-1.1.5-1.9,1.8-.9,1.2-2.7,3.409-4,4.913l-2.4,2.707-4.4-5.013c-2.5-2.807-4.6-4.612-4.6-4.01,0,.5-1.6,2.807-3.5,5.013q-.345.406-3.5,4.01l-4.3-4.812-4.2-4.812-4.7,6.216Q185.3,332.628,186.1,333.636Z" transform="translate(-185.98 -319.9)" fill="#f9f9f9" opacity="0.57"/>
        </g>
      </g>
      <g id="Group_51-2" data-name="Group 51" transform="translate(371.104 385.403)">
        <path id="Path_48-2" data-name="Path 48" d="M332,377.084c1.98-1.143,3.08-1.775,3.3-1.9,1.7-1,7.8-4.612,13.5-7.82,5.6-3.309,10.2-6.216,10.2-6.517,0-.4-4.6-3.309-10.2-6.517-5.7-3.309-11.8-6.818-13.5-7.82-.22-.13-1.32-.762-3.3-1.9v32.484Z" transform="translate(-332 -344.6)" fill="#f9f9f9"/>
        <g id="Group_50-2" data-name="Group 50">
          <path id="Path_49-2" data-name="Path 49" d="M332,377.084c1.98-1.143,3.08-1.775,3.3-1.9,1.7-1,7.8-4.612,13.5-7.82,5.6-3.309,10.2-6.216,10.2-6.517,0-.4-4.6-3.309-10.2-6.517-5.7-3.309-11.8-6.818-13.5-7.82-.22-.13-1.32-.762-3.3-1.9v32.484Z" transform="translate(-332 -344.6)" fill="#f9f9f9" opacity="0.57"/>
        </g>
      </g>
      <g id="Group_53-2" data-name="Group 53" transform="translate(52.21 386.602)">
        <path id="Path_50-2" data-name="Path 50" d="M68.14,346.561l1.75.612,1.61.842,1.46,1.043,1.31,1.213,1.13,1.374.96,1.494.76,1.6.56,1.694.34,1.734.12,1.775-.13,1.785-.37,1.765L77,365.22l-.91,1.664-1.19,1.574-.65.7-.67.642-.68.6-.71.541-.73.481-.75.441-.77.381-.78.331-.8.271-.81.221-.83.16-.84.11-.86.06h-.86l-.88-.05-.88-.11-.9-.17-1.19-.331-1.13-.411-1.06-.491-1-.571-.93-.652-.86-.722-.78-.782-.71-.852-.63-.912-.55-.973-.47-1.013-.38-1.073-.29-1.113-.2-1.163-.1-1.193-.01-1.223.09-1.263.12-.822.18-.822.25-.822.3-.822.35-.812.4-.792.44-.782.49-.752.52-.722.56-.692.59-.652.62-.612.64-.561.67-.511.68-.451.69-.381.7-.321.21-.09.22-.08.25-.08.26-.08.27-.08.29-.07.29-.07.31-.06.3-.06.32-.05.31-.04.31-.04.31-.04.3-.02.29-.02.29-.02h.27l1.98.09Zm-5.5,4.843-.92.381-.92.541-.93.712-.97.882-1.47,1.8-.93,1.895-.43,1.915.05,1.875.49,1.755.92,1.594,1.32,1.343,1.68,1.043,2.03.672,2.34.241.88-.02.78-.06.7-.1.63-.16.57-.211.53-.271.49-.341.48-.4.47-.481.47-.561.95-1.414.68-1.474.41-1.484.16-1.484-.09-1.444-.34-1.374-.58-1.273-.83-1.163-1.06-1-1.3-.822-1.21-.582-1.13-.431-1.05-.261-.99-.11-.96.05Z" transform="translate(-51.21 -346.1)" fill="#f9f9f9"/>
        <g id="Group_52-2" data-name="Group 52">
          <path id="Path_51-2" data-name="Path 51" d="M68.14,346.561l1.75.612,1.61.842,1.46,1.043,1.31,1.213,1.13,1.374.96,1.494.76,1.6.56,1.694.34,1.734.12,1.775-.13,1.785-.37,1.765L77,365.22l-.91,1.664-1.19,1.574-.65.7-.67.642-.68.6-.71.541-.73.481-.75.441-.77.381-.78.331-.8.271-.81.221-.83.16-.84.11-.86.06h-.86l-.88-.05-.88-.11-.9-.17-1.19-.331-1.13-.411-1.06-.491-1-.571-.93-.652-.86-.722-.78-.782-.71-.852-.63-.912-.55-.973-.47-1.013-.38-1.073-.29-1.113-.2-1.163-.1-1.193-.01-1.223.09-1.263.12-.822.18-.822.25-.822.3-.822.35-.812.4-.792.44-.782.49-.752.52-.722.56-.692.59-.652.62-.612.64-.561.67-.511.68-.451.69-.381.7-.321.21-.09.22-.08.25-.08.26-.08.27-.08.29-.07.29-.07.31-.06.3-.06.32-.05.31-.04.31-.04.31-.04.3-.02.29-.02.29-.02h.27l1.98.09Zm-5.5,4.843-.92.381-.92.541-.93.712-.97.882-1.47,1.8-.93,1.895-.43,1.915.05,1.875.49,1.755.92,1.594,1.32,1.343,1.68,1.043,2.03.672,2.34.241.88-.02.78-.06.7-.1.63-.16.57-.211.53-.271.49-.341.48-.4.47-.481.47-.561.95-1.414.68-1.474.41-1.484.16-1.484-.09-1.444-.34-1.374-.58-1.273-.83-1.163-1.06-1-1.3-.822-1.21-.582-1.13-.431-1.05-.261-.99-.11-.96.05Z" transform="translate(-51.21 -346.1)" fill="#f9f9f9" opacity="0.57"/>
        </g>
      </g>
      <g id="Group_55-2" data-name="Group 55" transform="translate(135.45 423.694)">
        <path id="Path_52-2" data-name="Path 52" d="M120.7,396.35c1.6,1.6,2.1,1.4,8.5-5.013q.675-.677,6.8-6.717,6.21,6.136,6.9,6.818c6,5.915,7.2,6.818,8.5,5.615a4.056,4.056,0,0,0,1.6-2.406c0-.6-3.7-4.812-8.3-9.424L136.5,377l-8.8,8.823Q119.1,394.651,120.7,396.35Z" transform="translate(-120.448 -377)" fill="#f9f9f9"/>
        <g id="Group_54-2" data-name="Group 54">
          <path id="Path_53-2" data-name="Path 53" d="M120.7,396.35c1.6,1.6,2.1,1.4,8.5-5.013q.675-.677,6.8-6.717,6.21,6.136,6.9,6.818c6,5.915,7.2,6.818,8.5,5.615a4.056,4.056,0,0,0,1.6-2.406c0-.6-3.7-4.812-8.3-9.424L136.5,377l-8.8,8.823Q119.1,394.651,120.7,396.35Z" transform="translate(-120.448 -377)" fill="#f9f9f9" opacity="0.57"/>
        </g>
      </g>
      <g id="Group_57-2" data-name="Group 57" transform="translate(294.178 428.061)">
        <path id="Path_54-2" data-name="Path 54" d="M277.9,377.28l.62.13.64.18.67.221.71.271.76.321,1.99,1.013,1.73,1.223,1.46,1.394,1.21,1.544.95,1.664.68,1.755.42,1.825.16,1.855-.1,1.865-.37,1.845-.63,1.795-.89,1.724-1.16,1.614L285.33,401l-1.68,1.333-1.95,1.133-.99.431-.98.341-.96.261-.96.18-.95.1h-.94l-.93-.07-.93-.171-.92-.241-.91-.341-.91-.431-.91-.511-.91-.6-.9-.692-.9-.792-.9-.872-.59-.592-.52-.551-.47-.521-.41-.481-.35-.471-.31-.451-.27-.441-.22-.451-.18-.461-.15-.471-.11-.5-.09-.531-.06-.571-.04-.612-.02-.682-.01-.732.03-1.123.09-1.083.14-1.033.21-.993.26-.942.32-.9.39-.862.44-.812.49-.762.56-.722.61-.682.68-.632.73-.592.79-.541.85-.5.91-.451.87-.391.8-.341.75-.291.7-.241.67-.19.63-.15.61-.1.6-.05h.58l.59.04Zm-4.75,5.855-1.29.752-1.2,1.033-1.06,1.3-1.25,2.577-.31,2.537.5,2.4,1.16,2.125,1.68,1.745,2.05,1.253,2.29.642,2.39-.07,2.34-.912,2.15-1.865.81-1.053.64-1.083.46-1.123.29-1.143.11-1.153-.06-1.143-.25-1.133-.42-1.113-.6-1.063-.78-1.023-1.25-1.183-1.34-.912-1.4-.632-1.43-.351-1.44-.08-1.42.2Z" transform="translate(-263 -377.15)" fill="#f9f9f9"/>
        <g id="Group_56-2" data-name="Group 56">
          <path id="Path_55-2" data-name="Path 55" d="M277.9,377.28l.62.13.64.18.67.221.71.271.76.321,1.99,1.013,1.73,1.223,1.46,1.394,1.21,1.544.95,1.664.68,1.755.42,1.825.16,1.855-.1,1.865-.37,1.845-.63,1.795-.89,1.724-1.16,1.614L285.33,401l-1.68,1.333-1.95,1.133-.99.431-.98.341-.96.261-.96.18-.95.1h-.94l-.93-.07-.93-.171-.92-.241-.91-.341-.91-.431-.91-.511-.91-.6-.9-.692-.9-.792-.9-.872-.59-.592-.52-.551-.47-.521-.41-.481-.35-.471-.31-.451-.27-.441-.22-.451-.18-.461-.15-.471-.11-.5-.09-.531-.06-.571-.04-.612-.02-.682-.01-.732.03-1.123.09-1.083.14-1.033.21-.993.26-.942.32-.9.39-.862.44-.812.49-.762.56-.722.61-.682.68-.632.73-.592.79-.541.85-.5.91-.451.87-.391.8-.341.75-.291.7-.241.67-.19.63-.15.61-.1.6-.05h.58l.59.04Zm-4.75,5.855-1.29.752-1.2,1.033-1.06,1.3-1.25,2.577-.31,2.537.5,2.4,1.16,2.125,1.68,1.745,2.05,1.253,2.29.642,2.39-.07,2.34-.912,2.15-1.865.81-1.053.64-1.083.46-1.123.29-1.143.11-1.153-.06-1.143-.25-1.133-.42-1.113-.6-1.063-.78-1.023-1.25-1.183-1.34-.912-1.4-.632-1.43-.351-1.44-.08-1.42.2Z" transform="translate(-263 -377.15)" fill="#f9f9f9" opacity="0.57"/>
        </g>
      </g>
      <g id="Group_59-2" data-name="Group 59" transform="translate(464 433.135)">
        <path id="Path_56-2" data-name="Path 56" d="M415.4,387.614c3.8.9,6.1,4.111,6.1,8.422s-2.3,7.52-6.1,8.422c-1.8.5-2.4,1.3-2.4,3.208,0,2.306.3,2.507,2.8,1.905a13.821,13.821,0,0,0,0-27.07c-2.5-.6-2.8-.4-2.8,1.9C413,386.311,413.6,387.113,415.4,387.614Z" transform="translate(-413 -382.211)" fill="#f9f9f9"/>
        <g id="Group_58-2" data-name="Group 58">
          <path id="Path_57-2" data-name="Path 57" d="M415.4,387.614c3.8.9,6.1,4.111,6.1,8.422s-2.3,7.52-6.1,8.422c-1.8.5-2.4,1.3-2.4,3.208,0,2.306.3,2.507,2.8,1.905a13.821,13.821,0,0,0,0-27.07c-2.5-.6-2.8-.4-2.8,1.9C413,386.311,413.6,387.113,415.4,387.614Z" transform="translate(-413 -382.211)" fill="#f9f9f9" opacity="0.57"/>
        </g>
      </g>
      <g id="Group_61-2" data-name="Group 61" transform="translate(222.91 459.994)">
        <path id="Path_58-2" data-name="Path 58" d="M205.6,415.717q.345.286,3.5,2.807-4.32,3.88-4.8,4.311c-4.2,3.71-4.6,4.411-3.2,5.514.8.6,3,2.406,4.9,3.91q.345.271,3.4,2.707c-1.44,1.143-2.24,1.775-2.4,1.9-1.4,1.1-3.6,2.908-5,4.111-.17.14-1,.842-2.5,2.105l4,3.409c3.1,2.807,4.9,3.509,8,3.509h4l-4-3.509-4-3.509,4-3.409a23.629,23.629,0,0,1,4.8-3.509c1.7-.1.4-1.9-3.8-5.013-2.5-1.9-4.5-3.71-4.5-4.211,0-.4,2-2.206,4.5-4.01a28.094,28.094,0,0,0,4.5-3.91c0-.6-11.4-9.926-12.2-9.926a5.528,5.528,0,0,0-1.5,2.005C202.2,412.71,202.4,413.311,205.6,415.717Z" transform="translate(-199.5 -409)" fill="#f9f9f9"/>
        <g id="Group_60-2" data-name="Group 60">
          <path id="Path_59-2" data-name="Path 59" d="M205.6,415.717q.345.286,3.5,2.807-4.32,3.88-4.8,4.311c-4.2,3.71-4.6,4.411-3.2,5.514.8.6,3,2.406,4.9,3.91q.345.271,3.4,2.707c-1.44,1.143-2.24,1.775-2.4,1.9-1.4,1.1-3.6,2.908-5,4.111-.17.14-1,.842-2.5,2.105l4,3.409c3.1,2.807,4.9,3.509,8,3.509h4l-4-3.509-4-3.509,4-3.409a23.629,23.629,0,0,1,4.8-3.509c1.7-.1.4-1.9-3.8-5.013-2.5-1.9-4.5-3.71-4.5-4.211,0-.4,2-2.206,4.5-4.01a28.094,28.094,0,0,0,4.5-3.91c0-.6-11.4-9.926-12.2-9.926a5.528,5.528,0,0,0-1.5,2.005C202.2,412.71,202.4,413.311,205.6,415.717Z" transform="translate(-199.5 -409)" fill="#f9f9f9" opacity="0.57"/>
        </g>
      </g>
      <g id="Group_63-2" data-name="Group 63" transform="translate(34 463.002)">
        <path id="Path_60-2" data-name="Path 60" d="M37.8,422.327a13.959,13.959,0,0,0,12.3,2.707C57.4,423.029,63.7,412,57.5,412c-1.8,0-2.5.5-2.5,1.8,0,3.108-4.2,6.216-8.4,6.216-3.9,0-8.6-3.509-8.6-6.517,0-.9-.9-1.5-2.5-1.5s-2.5.6-2.5,1.5C33,415.71,35.4,420.221,37.8,422.327Z" transform="translate(-33 -412)" fill="#f9f9f9"/>
        <g id="Group_62-2" data-name="Group 62">
          <path id="Path_61-2" data-name="Path 61" d="M37.8,422.327a13.959,13.959,0,0,0,12.3,2.707C57.4,423.029,63.7,412,57.5,412c-1.8,0-2.5.5-2.5,1.8,0,3.108-4.2,6.216-8.4,6.216-3.9,0-8.6-3.509-8.6-6.517,0-.9-.9-1.5-2.5-1.5s-2.5.6-2.5,1.5C33,415.71,35.4,420.221,37.8,422.327Z" transform="translate(-33 -412)" fill="#f9f9f9"/>
        </g>
      </g>
    </g>
  </g>
</svg>
