<?xml version="1.0" standalone="no"?>
<!DOCTYPE svg PUBLIC "-//W3C//DTD SVG 20010904//EN"
 "http://www.w3.org/TR/2001/REC-SVG-20010904/DTD/svg10.dtd">
<svg version="1.0" xmlns="http://www.w3.org/2000/svg"
 width="205.000000pt" height="205.000000pt" viewBox="0 0 205.000000 205.000000"
 preserveAspectRatio="xMidYMid meet">
<metadata>
Created by potrace 1.14, written by Peter Selinger 2001-2017
</metadata>
<g transform="translate(0.000000,205.000000) scale(0.100000,-0.100000)"
fill="#000000" stroke="none">
<path d="M315 1943 c-11 -3 -38 -19 -59 -36 -33 -26 -47 -31 -92 -30 -62 2
-56 12 -80 -140 -15 -92 -15 -119 -5 -175 7 -37 16 -139 21 -227 8 -150 7
-161 -10 -180 -11 -11 -27 -41 -37 -65 -16 -40 -18 -86 -18 -425 l0 -380 28
-61 29 -62 56 -6 c305 -32 1761 -56 1808 -29 33 19 38 68 13 118 -23 46 -23
104 2 162 11 28 11 37 -4 68 -49 102 -74 425 -43 558 8 34 12 81 9 104 -7 55
2 89 26 96 42 11 52 119 21 221 -20 64 -20 69 -4 159 9 50 22 115 30 143 8 28
12 58 8 67 -8 22 -58 37 -124 37 -33 0 -84 9 -121 22 -92 33 -268 32 -393 0
-70 -19 -108 -23 -181 -20 -88 3 -95 5 -133 36 -74 59 -111 64 -241 31 -80
-20 -87 -20 -195 -5 -128 18 -282 27 -311 19z m970 -483 c28 -4 40 -8 27 -9
-40 -2 -108 -76 -156 -171 -51 -97 -56 -134 -36 -260 19 -120 67 -190 149
-218 78 -27 82 -24 176 119 l86 132 -16 101 c-9 56 -19 110 -22 121 -4 17 0
15 26 -9 17 -16 42 -46 57 -67 l26 -38 -10 -148 c-6 -81 -18 -177 -27 -213
l-16 -66 -72 -43 c-69 -42 -80 -45 -242 -71 l-170 -26 -64 29 c-91 41 -260
168 -293 220 -27 42 -48 134 -48 212 0 78 31 215 56 244 37 44 149 97 274 130
63 16 126 34 140 40 14 6 43 8 65 5 22 -3 63 -9 90 -14z"/>
</g>
</svg>
